<?xml version="1.0" encoding="UTF-8"?>
<svg id="Layer_2" data-name="Layer 2" xmlns="http://www.w3.org/2000/svg" viewBox="0 0 464.78 231.29">
  <defs>
    <style>
      .cls-1 {
        font-size: 8.94px;
      }

      .cls-1, .cls-2, .cls-3, .cls-4, .cls-5 {
        fill: #070204;
      }

      .cls-1, .cls-2, .cls-4, .cls-5 {
        font-family: BrandonText-Bold, 'BrandonText Bold';
        font-weight: 700;
      }

      .cls-6 {
        letter-spacing: 0em;
      }

      .cls-2 {
        font-size: 9.19px;
      }

      .cls-7 {
        stroke: #569aba;
        stroke-miterlimit: 10;
        stroke-width: .74px;
      }

      .cls-7, .cls-8, .cls-9 {
        fill: none;
      }

      .cls-10 {
        letter-spacing: 0em;
      }

      .cls-4 {
        font-size: 6.53px;
      }

      .cls-8 {
        stroke-width: .59px;
      }

      .cls-8, .cls-9 {
        stroke: #070204;
      }

      .cls-11 {
        fill: #fff;
      }

      .cls-12 {
        fill: #c1e0f4;
      }

      .cls-13 {
        letter-spacing: 0em;
      }

      .cls-5 {
        font-size: 6.82px;
      }

      .cls-14 {
        letter-spacing: 0em;
      }

      .cls-9 {
        stroke-width: .48px;
      }

      .cls-15 {
        fill: #569aba;
      }

      .cls-16 {
        font-size: 18.76px;
      }

      .cls-16, .cls-17, .cls-18 {
        fill: #0e0e33;
        font-family: VisbyCF-Heavy, 'VisbyCF Heavy';
        font-weight: 800;
      }

      .cls-17 {
        font-size: 17.17px;
      }

      .cls-18 {
        font-size: 10.01px;
      }

      .cls-19 {
        letter-spacing: 0em;
      }

      .cls-20 {
        letter-spacing: 0em;
      }
    </style>
  </defs>
  <g id="Tech_Floor_2" data-name="Tech Floor 2">
    <g>
      <polygon class="cls-12" points="48.8 228.65 462.22 228.65 462.51 43.81 48.21 43.81 48.8 228.65"/>
      <line class="cls-7" x1="322.81" y1="45.55" x2="322.81" y2="61.1"/>
      <text class="cls-17" transform="translate(.02 14.37) scale(.97 1)"><tspan class="cls-14" x="0" y="0">TEC</tspan><tspan x="26.48" y="0">H</tspan></text>
      <text class="cls-16" transform="translate(.02 36.88)"><tspan class="cls-6" x="0" y="0">• </tspan><tspan class="cls-19" x="8.93" y="0"> </tspan></text>
      <text class="cls-17" transform="translate(12.09 36.88) scale(.97 1)"><tspan x="0" y="0">2</tspan></text>
      <text class="cls-18" transform="translate(21.37 31.16) scale(.97 1)"><tspan class="cls-13" x="0" y="0">n</tspan><tspan x="5.49" y="0">d</tspan></text>
      <text class="cls-17" transform="translate(33.2 36.88) scale(.97 1)"><tspan class="cls-10" x="0" y="0" xml:space="preserve"> Floo</tspan><tspan class="cls-20" x="34.31" y="0">r</tspan></text>
      <line class="cls-7" x1="311.36" y1="48.88" x2="311.36" y2="45.31"/>
      <polyline class="cls-7" points="263.99 53.69 263.99 63.87 311.36 63.87 311.36 53.69"/>
      <line class="cls-7" x1="263.99" y1="45.31" x2="263.99" y2="48.88"/>
      <path class="cls-3" d="M462.07,45.9l.15,182.76H48.8V45.9h413.27ZM464.62,43.27H46.24v188.02h418.54v-2.63s-.16-182.76-.16-182.76v-2.63Z"/>
      <rect class="cls-12" x="49.09" y="46.18" width="14.2" height="181.74"/>
      <line class="cls-7" x1="445.56" y1="86.2" x2="445.56" y2="140.38"/>
      <polygon class="cls-7" points="208.02 173.91 244.45 173.91 244.45 154.7 208.02 154.7 208.02 154.73 208.02 173.91"/>
      <polyline class="cls-7" points="84.01 165.95 84.01 164.72 88.51 164.72 88.51 162.41 111.06 162.41 111.06 139 63.21 139 63.21 45.82"/>
      <line class="cls-7" x1="63.17" y1="139.04" x2="63.17" y2="228.5"/>
      <line class="cls-7" x1="88.57" y1="139.33" x2="88.57" y2="162.26"/>
      <path class="cls-7" d="M319.72,166.45l-5.98,3.84c-.19-13.49-5.66-15.25-5.66-15.25h-5.25"/>
      <polyline class="cls-7" points="340.7 175.18 339.01 175.18 339.01 154.95 336.76 154.95 329.98 159.47"/>
      <polyline class="cls-7" points="110.84 179.53 110.84 172.81 63.63 172.81"/>
      <line class="cls-7" x1="110.84" y1="214.41" x2="110.84" y2="189.28"/>
      <line class="cls-7" x1="83.94" y1="170.64" x2="83.94" y2="172.88"/>
      <line class="cls-7" x1="110.91" y1="226.12" x2="110.91" y2="228.61"/>
      <line class="cls-7" x1="207.24" y1="214.41" x2="207.24" y2="172.81"/>
      <line class="cls-7" x1="207.31" y1="226.12" x2="207.31" y2="228.61"/>
      <line class="cls-7" x1="255.93" y1="226.12" x2="255.93" y2="228.61"/>
      <line class="cls-7" x1="255.86" y1="173.25" x2="255.86" y2="214.41"/>
      <line class="cls-7" x1="302.86" y1="214.41" x2="302.86" y2="155.04"/>
      <line class="cls-7" x1="302.93" y1="226.12" x2="302.93" y2="228.61"/>
      <line class="cls-7" x1="384.78" y1="228.61" x2="384.78" y2="161.54"/>
      <polyline class="cls-7" points="130.97 182.99 140.04 172.81 194.17 172.59 194.17 187.33 197.54 187.33"/>
      <line class="cls-7" x1="110.98" y1="201.49" x2="118.85" y2="193.61"/>
      <line class="cls-7" x1="203.44" y1="187.47" x2="207.24" y2="187.47"/>
      <line class="cls-7" x1="244.45" y1="173.91" x2="246.98" y2="173.91"/>
      <line class="cls-7" x1="252.79" y1="173.91" x2="275.14" y2="173.91"/>
      <polyline class="cls-7" points="349.76 161.43 349.76 175.08 384.85 175.08"/>
      <line class="cls-7" x1="349.55" y1="155.36" x2="384.85" y2="155.36"/>
      <polyline class="cls-7" points="390.97 173.13 445.56 173.13 445.56 228.61"/>
      <rect class="cls-7" x="424.38" y="140.41" width="6.75" height="24.81"/>
      <polyline class="cls-7" points="431.14 166.96 431.14 140.41 445.56 140.41 445.56 173.17"/>
      <line class="cls-7" x1="346.6" y1="175.1" x2="350.18" y2="175.1"/>
      <polyline class="cls-7" points="367.73 76.87 378.42 65.87 378.32 46.04"/>
      <polyline class="cls-7" points="360.16 134.45 360.16 85.91 363.83 80.87"/>
      <polyline class="cls-7" points="423.85 146.37 382.53 141 360.16 141"/>
      <polyline class="cls-7" points="360.46 85.98 445.56 85.98 445.56 45.9"/>
      <line class="cls-7" x1="431.02" y1="171.4" x2="431.02" y2="173.35"/>
      <path class="cls-7" d="M160.23,136.47l-.06,7.01,37.23,6.14,12.15-16.03-4.18-13.87,14.33-10.29,23.08,5.74,10.01-.43,1.05,1.95,12.96,3.03,17.18,3.79,27.29,6.07,5.38-1.95,11.25,2.34c-.97-4.68,1.94-9.28,6.5-10.28,4.56-.99,9.03,2,10,6.68.92,4.48-1.7,8.88-5.91,10.12"/>
      <polyline class="cls-7" points="111.69 138.93 113.94 138.93 113.94 122.32"/>
      <line class="cls-7" x1="114.36" y1="46.04" x2="112.11" y2="62.8"/>
      <line class="cls-7" x1="140.07" y1="172.52" x2="140.07" y2="147.89"/>
      <path class="cls-7" d="M194.17,172.74v-7.51s-.35-5.49,3.23-6.28"/>
      <polyline class="cls-7" points="235.41 60.31 245.53 60.37 245.53 45.82"/>
      <polyline class="cls-7" points="177.09 45.82 177.31 59.94 222.56 60.24"/>
      <rect class="cls-15" x="110.42" y="141.32" width="1.58" height="18.98"/>
      <rect class="cls-15" x="207.17" y="158.4" width="1.58" height="11.81"/>
      <text class="cls-5" transform="translate(136.77 200.17) scale(.97 1)"><tspan x="0" y="0">DESIGN IT! LAB</tspan></text>
      <text class="cls-5" transform="translate(70.95 200.17) scale(.97 1)"><tspan x="0" y="0">STEM LAB</tspan></text>
      <text class="cls-5" transform="translate(209.57 196.14) scale(.97 1)"><tspan x="0" y="0">AUTOMATION </tspan></text>
      <text class="cls-5" transform="translate(226.5 204.33) scale(.97 1)"><tspan x="0" y="0">LAB</tspan></text>
      <text class="cls-5" transform="translate(268.61 200.17) scale(.97 1)"><tspan x="0" y="0">SPARK</tspan></text>
      <text class="cls-5" transform="translate(272.18 208.36) scale(.97 1)"><tspan x="0" y="0">LAB </tspan></text>
      <text class="cls-4" transform="translate(309.06 201.7) scale(.97 1.04)"><tspan x="0" y="0">CURIOSITY WORKS LAB </tspan></text>
      <text class="cls-5" transform="translate(399.04 196.08) scale(.97 1)"><tspan x="0" y="0">DESIGN IT!</tspan></text>
      <text class="cls-5" transform="translate(396.64 204.27) scale(.97 1)"><tspan x="0" y="0">WORKSHOP</tspan></text>
      <text class="cls-2" transform="translate(183.41 59) scale(.97 1)"><tspan x="0" y="0">THE DISTANT</tspan></text>
      <text class="cls-2" transform="translate(193.24 67.96) scale(.97 1)"><tspan x="0" y="0">MIRROR</tspan></text>
      <text class="cls-2" transform="translate(162.86 124.12) scale(.97 1)"><tspan x="0" y="0">VIRTUAL</tspan></text>
      <text class="cls-2" transform="translate(158.59 133.09) scale(.97 1)"><tspan x="0" y="0">EXPLORER</tspan></text>
      <text class="cls-1" transform="translate(90.33 129.21) rotate(-90) scale(1.03 1)"><tspan x="0" y="0">PHYSICS &amp; YOU!</tspan></text>
      <line class="cls-7" x1="281.74" y1="173.91" x2="303.05" y2="173.91"/>
      <text class="cls-2" transform="translate(235.4 138.27) scale(.97 1)"><tspan x="0" y="0">LES PAUL’S</tspan></text>
      <text class="cls-2" transform="translate(218.94 147.23) scale(.97 1)"><tspan x="0" y="0">HOUSE OF SOUND</tspan></text>
      <text class="cls-2" transform="translate(124.33 67.9) scale(.97 1)"><tspan x="0" y="0">INNOVATION</tspan></text>
      <text class="cls-2" transform="translate(136.54 76.87) scale(.97 1)"><tspan x="0" y="0">PLANET</tspan></text>
      <path class="cls-3" d="M108.66,158.74c0,.71-.55,1.28-1.24,1.28h-15.24c-.68,0-1.24-.57-1.24-1.28v-15.32c0-.7.56-1.27,1.24-1.27h15.24c.68,0,1.24.57,1.24,1.27v15.32Z"/>
      <polygon class="cls-11" points="104.68 149.4 94.39 149.4 99.53 143.3 104.68 149.4"/>
      <polygon class="cls-11" points="104.68 152.47 99.53 158.56 94.39 152.47 104.68 152.47"/>
      <polyline class="cls-8" points="68.74 151.7 71.98 151.7 71.98 154.31 74.33 154.31 74.33 157.11 77.06 157.11 77.06 159.72 80.66 159.72"/>
      <polygon class="cls-3" points="70.13 152.91 68.94 151.7 70.13 150.48 69.12 150.48 67.94 151.7 69.12 152.91 70.13 152.91"/>
      <polygon class="cls-3" points="79.27 160.94 80.45 159.72 79.27 158.5 80.27 158.5 81.46 159.72 80.27 160.94 79.27 160.94"/>
      <path class="cls-7" d="M157.62,95.38c-.02-.1-.05-.15-.05-.25"/>
      <path class="cls-7" d="M156.6,94.84c-.02-.1-.05-.2-.07-.3"/>
      <path class="cls-7" d="M156.39,95.23c-.05-.2-.09-.42-.14-.61"/>
      <path class="cls-7" d="M156.23,95.5c-.05-.27-.12-.54-.19-.81"/>
      <path class="cls-7" d="M156.06,95.79c-.07-.37-.14-.71-.23-1.05"/>
      <path class="cls-7" d="M156.78,105.6s.02-.08.02-.13"/>
      <path class="cls-7" d="M149.99,98.22c-.07-.59-.19-1.2-.32-1.79"/>
      <path class="cls-7" d="M149.78,98.27c-.07-.61-.19-1.2-.33-1.79"/>
      <path class="cls-7" d="M116.43,94.37s-.02.07-.02.1"/>
      <path class="cls-7" d="M149.45,96.48c-.37-1.48-.95-2.9-1.74-4.17-.79-1.28-1.76-2.4-2.9-3.36-1.14-.93-2.41-1.67-3.78-2.18-1.34-.51-2.78-.78-4.22-.81-1.46-.02-2.9.2-4.26.66-1.37.47-2.67,1.18-3.83,2.08-1.16.91-2.18,2.01-2.99,3.26-.84,1.25-1.46,2.65-1.86,4.09"/>
      <path class="cls-7" d="M149.34,96.5c-.35-1.47-.93-2.84-1.71-4.12-.79-1.28-1.76-2.4-2.88-3.34-1.14-.93-2.39-1.67-3.73-2.18-1.34-.49-2.78-.76-4.2-.78-1.43-.02-2.87.2-4.22.66-1.37.47-2.64,1.15-3.81,2.06-1.16.88-2.16,1.99-2.97,3.24-.84,1.22-1.44,2.6-1.86,4.07"/>
      <path class="cls-7" d="M149.25,96.53c-.37-1.45-.93-2.82-1.72-4.1-.77-1.25-1.74-2.35-2.85-3.28-1.11-.93-2.37-1.67-3.71-2.16-1.32-.52-2.73-.78-4.15-.81-1.43-.02-2.85.2-4.2.66-1.34.47-2.62,1.15-3.76,2.04-1.14.91-2.13,1.99-2.94,3.21-.81,1.22-1.44,2.6-1.83,4.04"/>
      <path class="cls-7" d="M149.22,103.54c.28-1.18.42-2.35.42-3.55"/>
      <path class="cls-7" d="M149.34,103.44c.28-1.13.42-2.3.42-3.45"/>
      <path class="cls-7" d="M123.46,99.98c0,1.15.14,2.33.42,3.46"/>
      <path class="cls-7" d="M123.57,99.98c0,1.15.14,2.3.39,3.43"/>
      <path class="cls-7" d="M123.46,101.7c.07.59.16,1.18.3,1.77"/>
      <path class="cls-7" d="M123.23,101.72c.07.61.19,1.2.32,1.81"/>
      <path class="cls-7" d="M117.15,104.18c.07.34.14.69.23,1.03"/>
      <path class="cls-7" d="M116.99,104.44c.05.27.12.54.18.83"/>
      <path class="cls-7" d="M116.83,104.74c.05.2.09.39.14.59"/>
      <path class="cls-7" d="M116.62,105.11c.02.1.05.19.07.29"/>
      <line class="cls-7" x1="143.68" y1="80.13" x2="143.7" y2="80"/>
      <line class="cls-7" x1="145.86" y1="81.16" x2="145.93" y2="81.06"/>
      <line class="cls-7" x1="147.92" y1="82.46" x2="148" y2="82.36"/>
      <line class="cls-7" x1="149.82" y1="84.02" x2="149.89" y2="83.93"/>
      <line class="cls-7" x1="134.22" y1="78.9" x2="134.2" y2="78.8"/>
      <line class="cls-7" x1="136.61" y1="78.76" x2="136.61" y2="78.63"/>
      <line class="cls-7" x1="139.02" y1="78.9" x2="139.02" y2="78.8"/>
      <line class="cls-7" x1="141.38" y1="79.37" x2="141.41" y2="79.25"/>
      <line class="cls-7" x1="136.61" y1="85.74" x2="136.61" y2="79"/>
      <line class="cls-7" x1="125.29" y1="82.46" x2="125.22" y2="82.36"/>
      <line class="cls-7" x1="127.36" y1="81.16" x2="127.31" y2="81.06"/>
      <line class="cls-7" x1="129.53" y1="80.13" x2="129.51" y2="80"/>
      <line class="cls-7" x1="131.85" y1="79.37" x2="131.81" y2="79.25"/>
      <line class="cls-7" x1="123.39" y1="84.02" x2="123.32" y2="83.93"/>
      <line class="cls-7" x1="156.39" y1="95.23" x2="157.52" y2="94.91"/>
      <line class="cls-7" x1="156.23" y1="95.5" x2="157.57" y2="95.13"/>
      <line class="cls-7" x1="156.06" y1="95.79" x2="157.62" y2="95.38"/>
      <line class="cls-7" x1="156.04" y1="94.69" x2="156.25" y2="94.62"/>
      <line class="cls-7" x1="154.3" y1="89.96" x2="154.39" y2="89.91"/>
      <line class="cls-7" x1="155.3" y1="92.26" x2="155.41" y2="92.21"/>
      <line class="cls-7" x1="153.05" y1="87.8" x2="153.12" y2="87.73"/>
      <line class="cls-7" x1="155.3" y1="107.68" x2="155.41" y2="107.73"/>
      <line class="cls-7" x1="154.3" y1="109.98" x2="154.39" y2="110.06"/>
      <line class="cls-7" x1="156.6" y1="105.43" x2="156.8" y2="105.47"/>
      <line class="cls-7" x1="146.39" y1="90.69" x2="146.49" y2="90.62"/>
      <line class="cls-7" x1="147.37" y1="91.99" x2="147.46" y2="91.92"/>
      <line class="cls-7" x1="148.2" y1="93.41" x2="148.29" y2="93.36"/>
      <line class="cls-7" x1="148.85" y1="94.93" x2="148.97" y2="94.88"/>
      <line class="cls-7" x1="149.34" y1="96.5" x2="149.45" y2="96.48"/>
      <line class="cls-7" x1="142.68" y1="87.65" x2="142.73" y2="87.53"/>
      <line class="cls-7" x1="144.03" y1="88.49" x2="144.1" y2="88.41"/>
      <line class="cls-7" x1="145.28" y1="89.52" x2="145.35" y2="89.44"/>
      <line class="cls-7" x1="135.03" y1="86.18" x2="135.03" y2="86.06"/>
      <line class="cls-7" x1="136.61" y1="86.08" x2="136.61" y2="85.96"/>
      <line class="cls-7" x1="138.18" y1="86.18" x2="138.18" y2="86.06"/>
      <line class="cls-7" x1="141.24" y1="86.96" x2="141.27" y2="86.84"/>
      <line class="cls-7" x1="139.74" y1="86.47" x2="139.76" y2="86.35"/>
      <line class="cls-7" x1="146.65" y1="90.45" x2="151.38" y2="85.96"/>
      <line class="cls-7" x1="149.99" y1="98.22" x2="149.78" y2="98.27"/>
      <line class="cls-7" x1="133.48" y1="86.47" x2="133.45" y2="86.35"/>
      <line class="cls-7" x1="125.85" y1="91.99" x2="125.76" y2="91.92"/>
      <line class="cls-7" x1="126.82" y1="90.69" x2="126.75" y2="90.62"/>
      <polyline class="cls-7" points="123.88 96.5 116.62 94.54 116.41 94.47"/>
      <line class="cls-7" x1="118.91" y1="89.96" x2="118.82" y2="89.91"/>
      <line class="cls-7" x1="117.92" y1="92.26" x2="117.8" y2="92.21"/>
      <line class="cls-7" x1="124.36" y1="94.93" x2="124.25" y2="94.88"/>
      <line class="cls-7" x1="125.01" y1="93.41" x2="124.92" y2="93.36"/>
      <line class="cls-7" x1="129.19" y1="88.49" x2="129.12" y2="88.41"/>
      <line class="cls-7" x1="130.53" y1="87.65" x2="130.48" y2="87.53"/>
      <line class="cls-7" x1="131.97" y1="86.96" x2="131.95" y2="86.84"/>
      <line class="cls-7" x1="120.19" y1="87.8" x2="120.1" y2="87.73"/>
      <line class="cls-7" x1="127.94" y1="89.52" x2="127.87" y2="89.44"/>
      <line class="cls-7" x1="126.59" y1="90.45" x2="121.84" y2="85.96"/>
      <line class="cls-7" x1="125.57" y1="91.79" x2="120.35" y2="87.92"/>
      <line class="cls-7" x1="124.73" y1="93.24" x2="119.1" y2="90.06"/>
      <line class="cls-7" x1="124.06" y1="94.78" x2="118.13" y2="92.33"/>
      <line class="cls-7" x1="148.85" y1="105.03" x2="148.97" y2="105.08"/>
      <line class="cls-7" x1="148.2" y1="106.55" x2="148.29" y2="106.6"/>
      <line class="cls-7" x1="147.37" y1="107.95" x2="147.46" y2="108.02"/>
      <line class="cls-7" x1="146.39" y1="109.27" x2="146.49" y2="109.35"/>
      <line class="cls-7" x1="145.28" y1="110.42" x2="145.35" y2="110.52"/>
      <line class="cls-7" x1="124.73" y1="106.7" x2="119.1" y2="109.89"/>
      <line class="cls-7" x1="124.06" y1="105.16" x2="118.13" y2="107.61"/>
      <line class="cls-7" x1="123.55" y1="103.54" x2="117.38" y2="105.21"/>
      <line class="cls-7" x1="127.94" y1="110.42" x2="127.87" y2="110.52"/>
      <line class="cls-7" x1="126.82" y1="109.27" x2="126.75" y2="109.35"/>
      <line class="cls-7" x1="125.85" y1="107.95" x2="125.76" y2="108.02"/>
      <line class="cls-7" x1="125.01" y1="106.55" x2="124.92" y2="106.6"/>
      <line class="cls-7" x1="124.36" y1="105.03" x2="124.25" y2="105.08"/>
      <line class="cls-7" x1="123.88" y1="103.44" x2="123.76" y2="103.47"/>
      <line class="cls-7" x1="117.92" y1="107.68" x2="117.8" y2="107.73"/>
      <line class="cls-7" x1="118.91" y1="109.98" x2="118.82" y2="110.06"/>
      <line class="cls-7" x1="117.17" y1="105.28" x2="116.97" y2="105.33"/>
      <path class="cls-7" d="M149.75,99.98c0-1.18-.14-2.35-.42-3.48"/>
      <path class="cls-7" d="M149.64,99.98c0-1.18-.11-2.33-.39-3.46"/>
      <path class="cls-7" d="M124.02,96.43c-.3,1.15-.44,2.35-.44,3.56"/>
      <path class="cls-7" d="M123.88,96.5c-.28,1.13-.42,2.3-.42,3.48"/>
      <path class="cls-7" d="M123.55,103.54c.37,1.5.98,2.92,1.76,4.22.81,1.3,1.81,2.45,2.97,3.4,1.13.98,2.43,1.72,3.83,2.23,1.37.54,2.83.81,4.29.83,1.48.02,2.94-.22,4.33-.69s2.71-1.2,3.9-2.11c1.18-.93,2.2-2.06,3.04-3.33.84-1.25,1.48-2.67,1.88-4.17"/>
      <path class="cls-7" d="M117.38,105.21c.53,2.23,1.41,4.34,2.62,6.25,1.18,1.94,2.67,3.62,4.36,5.04,1.72,1.42,3.64,2.52,5.68,3.28,2.04.76,4.2,1.15,6.37,1.18,2.16.02,4.34-.35,6.4-1.06,2.04-.71,3.99-1.79,5.73-3.16,1.74-1.37,3.25-3.06,4.45-4.94,1.23-1.89,2.16-3.99,2.74-6.2"/>
      <path class="cls-7" d="M117.17,105.28c.56,2.23,1.44,4.36,2.64,6.32,1.21,1.94,2.69,3.65,4.43,5.07,1.72,1.44,3.67,2.55,5.73,3.33,2.06.76,4.24,1.15,6.45,1.17,2.18.03,4.38-.34,6.45-1.05,2.09-.73,4.06-1.81,5.8-3.21,1.76-1.39,3.29-3.08,4.52-4.99,1.23-1.91,2.18-4.01,2.76-6.24"/>
      <path class="cls-7" d="M116.96,105.33c.56,2.28,1.47,4.44,2.67,6.39,1.2,1.96,2.73,3.69,4.48,5.14,1.74,1.44,3.71,2.57,5.8,3.33,2.08.78,4.29,1.2,6.51,1.22,2.21,0,4.43-.34,6.52-1.08,2.11-.74,4.1-1.83,5.87-3.23,1.76-1.42,3.32-3.11,4.57-5.04,1.25-1.93,2.18-4.09,2.78-6.34"/>
      <path class="cls-7" d="M117.06,105.3c.55,2.26,1.46,4.39,2.66,6.35,1.21,1.96,2.71,3.67,4.45,5.11,1.74,1.44,3.69,2.57,5.75,3.33,2.09.76,4.29,1.17,6.49,1.2,2.21.03,4.41-.34,6.49-1.08,2.08-.71,4.06-1.81,5.82-3.21,1.76-1.4,3.29-3.09,4.54-5.02,1.25-1.93,2.18-4.07,2.76-6.29"/>
      <path class="cls-7" d="M123.97,103.42c.37,1.45.95,2.84,1.72,4.09.76,1.25,1.74,2.38,2.85,3.31,1.11.91,2.37,1.64,3.71,2.16,1.35.49,2.74.76,4.15.78,1.43.03,2.85-.2,4.2-.66,1.34-.46,2.62-1.15,3.76-2.03,1.16-.88,2.16-1.98,2.97-3.21.81-1.22,1.41-2.6,1.81-4.02"/>
      <path class="cls-7" d="M123.88,103.44c.35,1.47.93,2.87,1.71,4.14.79,1.25,1.77,2.38,2.88,3.31,1.14.93,2.39,1.66,3.74,2.18,1.37.51,2.78.78,4.2.81,1.43.02,2.87-.22,4.22-.66,1.37-.46,2.67-1.18,3.8-2.06,1.16-.91,2.16-2.01,2.97-3.23.84-1.25,1.44-2.62,1.85-4.07"/>
      <path class="cls-7" d="M123.76,103.47c.37,1.5.95,2.89,1.74,4.17.79,1.27,1.76,2.4,2.9,3.35,1.14.93,2.41,1.69,3.78,2.21,1.37.49,2.78.76,4.22.78,1.46.03,2.9-.2,4.26-.66,1.37-.47,2.67-1.18,3.83-2.08,1.16-.91,2.18-2.01,2.99-3.26.84-1.25,1.46-2.62,1.86-4.09"/>
      <path class="cls-7" d="M115.62,104.59c0,.07.02.15.02.22"/>
      <path class="cls-7" d="M115.71,105.03c.51,2.45,1.44,4.8,2.69,6.93,1.27,2.13,2.85,4.04,4.71,5.61,1.86,1.59,3.94,2.84,6.17,3.7,2.25.86,4.61,1.32,6.98,1.35,2.39.05,4.75-.32,7.03-1.1,2.25-.78,4.38-1.96,6.29-3.48,1.9-1.52,3.55-3.38,4.87-5.46,1.32-2.08,2.3-4.41,2.92-6.84"/>
      <path class="cls-7" d="M156.15,94.66c-.56-2.28-1.46-4.41-2.67-6.37-1.2-1.94-2.71-3.68-4.45-5.12-1.74-1.42-3.69-2.55-5.75-3.33-2.09-.76-4.27-1.17-6.49-1.17-2.2-.03-4.38.32-6.49,1.05-2.09.73-4.06,1.81-5.82,3.21-1.76,1.42-3.29,3.12-4.55,5.03-1.23,1.94-2.18,4.07-2.76,6.33"/>
      <path class="cls-7" d="M156.25,94.62c-.56-2.26-1.44-4.41-2.67-6.38-1.2-1.96-2.71-3.7-4.48-5.15-1.74-1.45-3.71-2.57-5.8-3.36-2.08-.78-4.29-1.18-6.51-1.2-2.2-.02-4.41.35-6.51,1.08-2.11.71-4.08,1.82-5.87,3.24-1.76,1.39-3.32,3.11-4.57,5.05-1.25,1.94-2.18,4.07-2.78,6.33"/>
      <path class="cls-7" d="M156.04,94.69c-.53-2.26-1.44-4.38-2.64-6.32-1.18-1.94-2.69-3.68-4.41-5.1-1.74-1.42-3.69-2.55-5.75-3.31-2.06-.76-4.24-1.18-6.44-1.2-2.18-.03-4.36.34-6.45,1.08-2.08.71-4.06,1.79-5.79,3.19-1.76,1.4-3.29,3.09-4.52,5-1.23,1.91-2.16,4.04-2.76,6.28"/>
      <path class="cls-7" d="M155.83,94.74c-.53-2.23-1.41-4.34-2.62-6.25-1.18-1.91-2.66-3.63-4.36-5.03-1.72-1.42-3.64-2.52-5.68-3.28-2.04-.76-4.2-1.18-6.37-1.18-2.16-.03-4.31.32-6.38,1.03-2.06.74-4.01,1.79-5.75,3.19-1.72,1.37-3.25,3.04-4.45,4.93-1.23,1.91-2.16,4-2.73,6.2"/>
      <path class="cls-7" d="M157.52,94.91c-.53-2.45-1.46-4.78-2.72-6.94-1.25-2.13-2.85-4.02-4.71-5.61-1.86-1.59-3.94-2.84-6.17-3.7-2.25-.86-4.59-1.3-6.98-1.35-2.39-.05-4.75.34-7.03,1.13-2.25.78-4.38,1.96-6.28,3.48-1.9,1.52-3.55,3.36-4.87,5.44-1.32,2.11-2.29,4.41-2.89,6.84"/>
      <path class="cls-7" d="M149.66,96.43c-.37-1.52-.98-2.94-1.76-4.24-.81-1.3-1.81-2.45-2.97-3.41-1.13-.96-2.43-1.72-3.83-2.23-1.37-.52-2.83-.78-4.29-.81-1.48-.02-2.95.2-4.33.66-1.39.49-2.71,1.2-3.89,2.13-1.18.91-2.2,2.04-3.04,3.31-.84,1.28-1.49,2.67-1.88,4.17"/>
      <line class="cls-7" x1="123.23" y1="101.72" x2="123.46" y2="101.7"/>
      <line class="cls-7" x1="149.66" y1="96.43" x2="155.83" y2="94.74"/>
      <line class="cls-7" x1="149.15" y1="94.78" x2="155.11" y2="92.36"/>
      <line class="cls-7" x1="148.48" y1="93.24" x2="154.11" y2="90.06"/>
      <line class="cls-7" x1="147.65" y1="91.79" x2="152.86" y2="87.92"/>
      <line class="cls-7" x1="149.22" y1="103.54" x2="157.36" y2="105.74"/>
      <line class="cls-7" x1="149.15" y1="105.16" x2="155.11" y2="107.61"/>
      <line class="cls-7" x1="148.48" y1="106.7" x2="154.11" y2="109.89"/>
      <line class="cls-7" x1="148.85" y1="103.73" x2="156.99" y2="105.97"/>
      <line class="cls-7" x1="149.34" y1="103.44" x2="156.6" y2="105.43"/>
      <line class="cls-7" x1="153.05" y1="112.16" x2="153.12" y2="112.21"/>
      <line class="cls-7" x1="144.21" y1="111.75" x2="147.81" y2="117.3"/>
      <line class="cls-7" x1="142.82" y1="112.6" x2="145.77" y2="118.57"/>
      <line class="cls-7" x1="141.36" y1="113.31" x2="143.59" y2="119.6"/>
      <line class="cls-7" x1="139.81" y1="113.8" x2="141.31" y2="120.34"/>
      <line class="cls-7" x1="138.23" y1="114.12" x2="138.97" y2="120.8"/>
      <line class="cls-7" x1="135.01" y1="114.12" x2="134.24" y2="120.8"/>
      <line class="cls-7" x1="151.54" y1="114.15" x2="151.63" y2="114.22"/>
      <line class="cls-7" x1="144.03" y1="111.45" x2="144.1" y2="111.55"/>
      <line class="cls-7" x1="142.68" y1="112.31" x2="142.73" y2="112.41"/>
      <line class="cls-7" x1="141.24" y1="112.97" x2="141.27" y2="113.09"/>
      <line class="cls-7" x1="139.74" y1="113.48" x2="139.76" y2="113.58"/>
      <line class="cls-7" x1="138.18" y1="113.78" x2="138.18" y2="113.88"/>
      <line class="cls-7" x1="136.61" y1="113.88" x2="136.61" y2="113.98"/>
      <line class="cls-7" x1="135.03" y1="113.78" x2="135.03" y2="113.88"/>
      <line class="cls-7" x1="149.82" y1="115.93" x2="149.89" y2="116.01"/>
      <line class="cls-7" x1="141.38" y1="120.56" x2="141.41" y2="120.68"/>
      <line class="cls-7" x1="143.68" y1="119.82" x2="143.7" y2="119.92"/>
      <line class="cls-7" x1="145.86" y1="118.8" x2="145.93" y2="118.89"/>
      <line class="cls-7" x1="147.92" y1="117.48" x2="148" y2="117.57"/>
      <line class="cls-7" x1="136.61" y1="114.22" x2="136.61" y2="120.95"/>
      <line class="cls-7" x1="134.22" y1="121.02" x2="134.2" y2="121.15"/>
      <line class="cls-7" x1="136.61" y1="121.17" x2="136.61" y2="121.29"/>
      <line class="cls-7" x1="139.02" y1="121.02" x2="139.02" y2="121.15"/>
      <line class="cls-7" x1="133.41" y1="113.8" x2="131.9" y2="120.34"/>
      <line class="cls-7" x1="131.88" y1="113.31" x2="129.63" y2="119.6"/>
      <line class="cls-7" x1="130.39" y1="112.6" x2="127.45" y2="118.57"/>
      <line class="cls-7" x1="129" y1="111.75" x2="125.41" y2="117.3"/>
      <line class="cls-7" x1="121.67" y1="114.15" x2="121.6" y2="114.22"/>
      <line class="cls-7" x1="133.48" y1="113.48" x2="133.45" y2="113.58"/>
      <line class="cls-7" x1="131.97" y1="112.97" x2="131.95" y2="113.09"/>
      <line class="cls-7" x1="130.53" y1="112.31" x2="130.48" y2="112.41"/>
      <line class="cls-7" x1="129.19" y1="111.45" x2="129.12" y2="111.55"/>
      <line class="cls-7" x1="120.19" y1="112.16" x2="120.1" y2="112.21"/>
      <line class="cls-7" x1="131.85" y1="120.56" x2="131.81" y2="120.68"/>
      <line class="cls-7" x1="123.39" y1="115.93" x2="123.32" y2="116.01"/>
      <line class="cls-7" x1="125.29" y1="117.48" x2="125.22" y2="117.57"/>
      <line class="cls-7" x1="127.36" y1="118.8" x2="127.31" y2="118.89"/>
      <line class="cls-7" x1="129.53" y1="119.82" x2="129.51" y2="119.92"/>
      <line class="cls-7" x1="145.49" y1="110.69" x2="149.68" y2="115.76"/>
      <line class="cls-7" x1="127.72" y1="110.69" x2="123.53" y2="115.76"/>
      <line class="cls-7" x1="125.57" y1="108.15" x2="120.35" y2="112.02"/>
      <line class="cls-7" x1="147.65" y1="108.15" x2="152.86" y2="112.02"/>
      <line class="cls-7" x1="146.65" y1="109.49" x2="151.38" y2="114"/>
      <line class="cls-7" x1="126.59" y1="109.49" x2="121.84" y2="114"/>
      <line class="cls-7" x1="124.02" y1="96.43" x2="115.88" y2="94.2"/>
      <line class="cls-7" x1="117.15" y1="104.18" x2="115.62" y2="104.59"/>
      <line class="cls-7" x1="116.99" y1="104.44" x2="115.65" y2="104.81"/>
      <line class="cls-7" x1="116.83" y1="104.74" x2="115.71" y2="105.03"/>
      <line class="cls-7" x1="121.67" y1="85.79" x2="121.6" y2="85.72"/>
      <line class="cls-7" x1="151.54" y1="85.79" x2="151.63" y2="85.72"/>
      <line class="cls-7" x1="145.49" y1="89.25" x2="149.68" y2="84.2"/>
      <line class="cls-7" x1="144.21" y1="88.22" x2="147.81" y2="82.65"/>
      <line class="cls-7" x1="142.82" y1="87.33" x2="145.77" y2="81.35"/>
      <line class="cls-7" x1="141.36" y1="86.65" x2="143.59" y2="80.32"/>
      <line class="cls-7" x1="139.81" y1="86.13" x2="141.31" y2="79.59"/>
      <line class="cls-7" x1="138.23" y1="85.84" x2="138.97" y2="79.15"/>
      <line class="cls-7" x1="135.01" y1="85.84" x2="134.24" y2="79.15"/>
      <line class="cls-7" x1="133.41" y1="86.13" x2="131.9" y2="79.59"/>
      <line class="cls-7" x1="131.88" y1="86.65" x2="129.63" y2="80.32"/>
      <line class="cls-7" x1="130.39" y1="87.33" x2="127.45" y2="81.35"/>
      <line class="cls-7" x1="129" y1="88.22" x2="125.41" y2="82.65"/>
      <line class="cls-7" x1="127.72" y1="89.25" x2="123.53" y2="84.2"/>
      <path class="cls-7" d="M157.52,94.91c-.53-2.45-1.46-4.78-2.72-6.94-1.25-2.13-2.85-4.02-4.71-5.61-1.86-1.59-3.94-2.84-6.17-3.7-2.25-.86-4.59-1.3-6.98-1.35-2.39-.05-4.75.34-7.03,1.13-2.25.78-4.38,1.96-6.28,3.48-1.9,1.52-3.55,3.36-4.87,5.44-1.32,2.11-2.29,4.41-2.89,6.84"/>
      <path class="cls-7" d="M115.71,105.03c.51,2.45,1.44,4.8,2.69,6.93,1.27,2.13,2.85,4.04,4.71,5.61,1.86,1.59,3.94,2.84,6.17,3.7,2.25.86,4.61,1.32,6.98,1.35,2.39.05,4.75-.32,7.03-1.1,2.25-.78,4.38-1.96,6.29-3.48,1.9-1.52,3.55-3.38,4.87-5.46,1.32-2.08,2.3-4.41,2.92-6.84"/>
      <path class="cls-7" d="M157.62,95.38c-.02-.1-.05-.15-.05-.25"/>
      <path class="cls-7" d="M156.39,95.23c-.05-.2-.09-.39-.14-.61"/>
      <path class="cls-7" d="M156.23,95.5c-.05-.27-.12-.54-.19-.81"/>
      <path class="cls-7" d="M156.06,95.79c-.07-.37-.14-.71-.23-1.05"/>
      <path class="cls-7" d="M156.78,105.6s.02-.08.02-.13"/>
      <line class="cls-7" x1="125.29" y1="117.48" x2="125.22" y2="117.57"/>
      <line class="cls-7" x1="157.62" y1="95.38" x2="157.57" y2="95.13"/>
      <line class="cls-7" x1="143.68" y1="80.13" x2="143.7" y2="80"/>
      <line class="cls-7" x1="145.86" y1="81.16" x2="145.93" y2="81.06"/>
      <line class="cls-7" x1="147.92" y1="82.46" x2="148" y2="82.36"/>
      <line class="cls-7" x1="149.82" y1="84.02" x2="149.89" y2="83.93"/>
      <line class="cls-7" x1="134.22" y1="78.9" x2="134.2" y2="78.8"/>
      <line class="cls-7" x1="136.61" y1="78.76" x2="136.61" y2="78.63"/>
      <line class="cls-7" x1="139.02" y1="78.9" x2="139.02" y2="78.8"/>
      <line class="cls-7" x1="141.38" y1="79.37" x2="141.41" y2="79.25"/>
      <line class="cls-7" x1="136.61" y1="85.74" x2="136.61" y2="79"/>
      <line class="cls-7" x1="125.29" y1="82.46" x2="125.22" y2="82.36"/>
      <line class="cls-7" x1="127.36" y1="81.16" x2="127.31" y2="81.06"/>
      <line class="cls-7" x1="129.53" y1="80.13" x2="129.51" y2="80"/>
      <line class="cls-7" x1="131.85" y1="79.37" x2="131.81" y2="79.25"/>
      <line class="cls-7" x1="123.39" y1="84.02" x2="123.32" y2="83.93"/>
      <line class="cls-7" x1="156.39" y1="95.23" x2="157.52" y2="94.91"/>
      <line class="cls-7" x1="156.23" y1="95.5" x2="157.57" y2="95.13"/>
      <line class="cls-7" x1="156.06" y1="95.79" x2="157.62" y2="95.38"/>
      <line class="cls-7" x1="156.04" y1="94.69" x2="156.25" y2="94.62"/>
      <line class="cls-7" x1="154.3" y1="89.96" x2="154.39" y2="89.91"/>
      <line class="cls-7" x1="155.3" y1="92.26" x2="155.41" y2="92.21"/>
      <line class="cls-7" x1="153.05" y1="87.8" x2="153.12" y2="87.73"/>
      <line class="cls-7" x1="155.3" y1="107.68" x2="155.41" y2="107.73"/>
      <line class="cls-7" x1="154.3" y1="109.98" x2="154.39" y2="110.06"/>
      <line class="cls-7" x1="156.6" y1="105.43" x2="156.8" y2="105.47"/>
      <line class="cls-7" x1="146.39" y1="90.69" x2="146.49" y2="90.62"/>
      <line class="cls-7" x1="147.37" y1="91.99" x2="147.46" y2="91.92"/>
      <line class="cls-7" x1="148.2" y1="93.41" x2="148.29" y2="93.36"/>
      <line class="cls-7" x1="148.85" y1="94.93" x2="148.97" y2="94.88"/>
      <line class="cls-7" x1="149.34" y1="96.5" x2="149.45" y2="96.48"/>
      <line class="cls-7" x1="142.68" y1="87.65" x2="142.73" y2="87.53"/>
      <line class="cls-7" x1="144.03" y1="88.49" x2="144.1" y2="88.41"/>
      <path class="cls-7" d="M149.99,98.22c-.07-.59-.19-1.2-.32-1.79"/>
      <path class="cls-7" d="M149.78,98.27c-.07-.61-.19-1.2-.33-1.79"/>
      <path class="cls-7" d="M116.43,94.37s-.02.07-.02.1"/>
      <path class="cls-7" d="M149.45,96.48c-.37-1.48-.95-2.9-1.74-4.17-.79-1.28-1.76-2.4-2.9-3.36-1.14-.93-2.41-1.67-3.78-2.18-1.34-.51-2.78-.78-4.22-.81-1.46-.02-2.9.2-4.26.66-1.37.47-2.67,1.18-3.83,2.08-1.16.91-2.18,2.01-2.99,3.26-.84,1.25-1.46,2.65-1.86,4.09"/>
      <path class="cls-7" d="M149.34,96.5c-.35-1.47-.93-2.84-1.71-4.12-.79-1.28-1.76-2.4-2.88-3.34-1.14-.93-2.39-1.67-3.73-2.18-1.34-.49-2.78-.76-4.2-.78-1.43-.02-2.87.2-4.22.66-1.37.47-2.64,1.15-3.81,2.06-1.16.88-2.16,1.99-2.97,3.24-.84,1.22-1.44,2.6-1.86,4.07"/>
      <path class="cls-7" d="M149.25,96.53c-.37-1.45-.93-2.82-1.72-4.1-.77-1.25-1.74-2.35-2.85-3.28-1.11-.93-2.37-1.67-3.71-2.16-1.32-.52-2.73-.78-4.15-.81-1.43-.02-2.85.2-4.2.66-1.34.47-2.62,1.15-3.76,2.04-1.14.91-2.13,1.99-2.94,3.21-.81,1.22-1.44,2.6-1.83,4.04"/>
      <path class="cls-7" d="M149.22,103.54c.28-1.18.42-2.35.42-3.55"/>
      <path class="cls-7" d="M149.34,103.44c.28-1.13.42-2.3.42-3.45"/>
      <path class="cls-7" d="M123.46,99.98c0,1.15.14,2.33.42,3.46"/>
      <path class="cls-7" d="M123.57,99.98c0,1.15.14,2.3.39,3.43"/>
      <path class="cls-7" d="M123.46,101.7c.07.59.16,1.18.3,1.77"/>
      <path class="cls-7" d="M123.23,101.72c.07.61.19,1.2.32,1.81"/>
      <path class="cls-7" d="M117.15,104.18c.07.34.14.69.23,1.03"/>
      <path class="cls-7" d="M116.99,104.44c.05.27.12.54.18.83"/>
      <path class="cls-7" d="M116.83,104.74c.05.2.09.39.14.59"/>
      <path class="cls-7" d="M116.62,105.11c.02.1.05.19.07.29"/>
      <path class="cls-7" d="M149.75,99.98c0-1.18-.14-2.35-.42-3.48"/>
      <path class="cls-7" d="M149.64,99.98c0-1.18-.11-2.33-.39-3.46"/>
      <path class="cls-7" d="M124.02,96.43c-.3,1.15-.44,2.35-.44,3.56"/>
      <line class="cls-7" x1="145.28" y1="89.52" x2="145.35" y2="89.44"/>
      <line class="cls-7" x1="135.03" y1="86.18" x2="135.03" y2="86.06"/>
      <line class="cls-7" x1="136.61" y1="86.08" x2="136.61" y2="85.96"/>
      <line class="cls-7" x1="138.18" y1="86.18" x2="138.18" y2="86.06"/>
      <line class="cls-7" x1="141.24" y1="86.96" x2="141.27" y2="86.84"/>
      <line class="cls-7" x1="139.74" y1="86.47" x2="139.76" y2="86.35"/>
      <line class="cls-7" x1="146.65" y1="90.45" x2="151.38" y2="85.96"/>
      <line class="cls-7" x1="149.99" y1="98.22" x2="149.78" y2="98.27"/>
      <line class="cls-7" x1="133.48" y1="86.47" x2="133.45" y2="86.35"/>
      <line class="cls-7" x1="125.85" y1="91.99" x2="125.76" y2="91.92"/>
      <line class="cls-7" x1="126.82" y1="90.69" x2="126.75" y2="90.62"/>
      <polyline class="cls-7" points="123.88 96.5 116.62 94.54 116.41 94.47"/>
      <line class="cls-7" x1="118.91" y1="89.96" x2="118.82" y2="89.91"/>
      <line class="cls-7" x1="117.92" y1="92.26" x2="117.8" y2="92.21"/>
      <line class="cls-7" x1="124.36" y1="94.93" x2="124.25" y2="94.88"/>
      <line class="cls-7" x1="125.01" y1="93.41" x2="124.92" y2="93.36"/>
      <line class="cls-7" x1="129.19" y1="88.49" x2="129.12" y2="88.41"/>
      <line class="cls-7" x1="130.53" y1="87.65" x2="130.48" y2="87.53"/>
      <line class="cls-7" x1="131.97" y1="86.96" x2="131.95" y2="86.84"/>
      <line class="cls-7" x1="120.19" y1="87.8" x2="120.1" y2="87.73"/>
      <line class="cls-7" x1="127.94" y1="89.52" x2="127.87" y2="89.44"/>
      <line class="cls-7" x1="126.59" y1="90.45" x2="121.84" y2="85.96"/>
      <line class="cls-7" x1="125.57" y1="91.79" x2="120.35" y2="87.92"/>
      <line class="cls-7" x1="124.73" y1="93.24" x2="119.1" y2="90.06"/>
      <line class="cls-7" x1="124.06" y1="94.78" x2="118.13" y2="92.33"/>
      <line class="cls-7" x1="148.85" y1="105.03" x2="148.97" y2="105.08"/>
      <line class="cls-7" x1="148.2" y1="106.55" x2="148.29" y2="106.6"/>
      <line class="cls-7" x1="147.37" y1="107.95" x2="147.46" y2="108.02"/>
      <line class="cls-7" x1="146.39" y1="109.27" x2="146.49" y2="109.35"/>
      <line class="cls-7" x1="145.28" y1="110.42" x2="145.35" y2="110.52"/>
      <line class="cls-7" x1="124.73" y1="106.7" x2="119.1" y2="109.89"/>
      <line class="cls-7" x1="124.06" y1="105.16" x2="118.13" y2="107.61"/>
      <line class="cls-7" x1="123.55" y1="103.54" x2="117.38" y2="105.21"/>
      <line class="cls-7" x1="127.94" y1="110.42" x2="127.87" y2="110.52"/>
      <line class="cls-7" x1="126.82" y1="109.27" x2="126.75" y2="109.35"/>
      <line class="cls-7" x1="125.85" y1="107.95" x2="125.76" y2="108.02"/>
      <line class="cls-7" x1="125.01" y1="106.55" x2="124.92" y2="106.6"/>
      <line class="cls-7" x1="124.36" y1="105.03" x2="124.25" y2="105.08"/>
      <line class="cls-7" x1="123.88" y1="103.44" x2="123.76" y2="103.47"/>
      <line class="cls-7" x1="117.92" y1="107.68" x2="117.8" y2="107.73"/>
      <line class="cls-7" x1="118.91" y1="109.98" x2="118.82" y2="110.06"/>
      <line class="cls-7" x1="117.17" y1="105.28" x2="116.97" y2="105.33"/>
      <line class="cls-7" x1="123.23" y1="101.72" x2="123.46" y2="101.7"/>
      <line class="cls-7" x1="149.66" y1="96.43" x2="155.83" y2="94.74"/>
      <line class="cls-7" x1="149.15" y1="94.78" x2="155.11" y2="92.36"/>
      <line class="cls-7" x1="148.48" y1="93.24" x2="154.11" y2="90.06"/>
      <path class="cls-7" d="M123.55,103.54c.37,1.5.98,2.92,1.76,4.22.81,1.3,1.81,2.45,2.97,3.4,1.13.98,2.43,1.72,3.83,2.23,1.37.54,2.83.81,4.29.83,1.48.02,2.94-.22,4.33-.69s2.71-1.2,3.9-2.11c1.18-.93,2.2-2.06,3.04-3.33.84-1.25,1.48-2.67,1.88-4.17"/>
      <path class="cls-7" d="M117.38,105.21c.53,2.23,1.41,4.34,2.62,6.25,1.18,1.94,2.67,3.62,4.36,5.04,1.72,1.42,3.64,2.52,5.68,3.28,2.04.76,4.2,1.15,6.37,1.18,2.16.02,4.34-.35,6.4-1.06,2.04-.71,3.99-1.79,5.73-3.16,1.74-1.37,3.25-3.06,4.45-4.94,1.23-1.89,2.16-3.99,2.74-6.2"/>
      <path class="cls-7" d="M117.17,105.28c.56,2.23,1.44,4.36,2.64,6.32,1.21,1.94,2.69,3.65,4.43,5.07,1.72,1.44,3.67,2.55,5.73,3.33,2.06.76,4.24,1.15,6.45,1.17,2.18.03,4.38-.34,6.45-1.05,2.09-.73,4.06-1.81,5.8-3.21,1.76-1.39,3.29-3.08,4.52-4.99,1.23-1.91,2.18-4.01,2.76-6.24"/>
      <path class="cls-7" d="M116.96,105.33c.56,2.28,1.47,4.44,2.67,6.39,1.2,1.96,2.73,3.69,4.48,5.14,1.74,1.44,3.71,2.57,5.8,3.33,2.08.78,4.29,1.2,6.51,1.22,2.21,0,4.43-.34,6.52-1.08,2.11-.74,4.1-1.83,5.87-3.23,1.76-1.42,3.32-3.11,4.57-5.04,1.25-1.93,2.18-4.09,2.78-6.34"/>
      <path class="cls-7" d="M117.06,105.3c.55,2.26,1.46,4.39,2.66,6.35,1.21,1.96,2.71,3.67,4.45,5.11,1.74,1.44,3.69,2.57,5.75,3.33,2.09.76,4.29,1.17,6.49,1.2,2.21.03,4.41-.34,6.49-1.08,2.08-.71,4.06-1.81,5.82-3.21,1.76-1.4,3.29-3.09,4.54-5.02,1.25-1.93,2.18-4.07,2.76-6.29"/>
      <path class="cls-7" d="M123.97,103.42c.37,1.45.95,2.84,1.72,4.09.76,1.25,1.74,2.38,2.85,3.31,1.11.91,2.37,1.64,3.71,2.16,1.35.49,2.74.76,4.15.78,1.43.03,2.85-.2,4.2-.66,1.34-.46,2.62-1.15,3.76-2.03,1.16-.88,2.16-1.98,2.97-3.21.81-1.22,1.41-2.6,1.81-4.02"/>
      <path class="cls-7" d="M123.88,103.44c.35,1.47.93,2.87,1.71,4.14.79,1.25,1.77,2.38,2.88,3.31,1.14.93,2.39,1.66,3.74,2.18,1.37.51,2.78.78,4.2.81,1.43.02,2.87-.22,4.22-.66,1.37-.46,2.67-1.18,3.8-2.06,1.16-.91,2.16-2.01,2.97-3.23.84-1.25,1.44-2.62,1.85-4.07"/>
      <path class="cls-7" d="M123.76,103.47c.37,1.5.95,2.89,1.74,4.17.79,1.27,1.76,2.4,2.9,3.35,1.14.93,2.41,1.69,3.78,2.21,1.37.49,2.78.76,4.22.78,1.46.03,2.9-.2,4.26-.66,1.37-.47,2.67-1.18,3.83-2.08,1.16-.91,2.18-2.01,2.99-3.26.84-1.25,1.46-2.62,1.86-4.09"/>
      <path class="cls-7" d="M115.62,104.59c0,.07.02.15.02.22"/>
      <line class="cls-7" x1="147.65" y1="91.79" x2="152.86" y2="87.92"/>
      <line class="cls-7" x1="149.22" y1="103.54" x2="157.36" y2="105.74"/>
      <line class="cls-7" x1="149.15" y1="105.16" x2="155.11" y2="107.61"/>
      <line class="cls-7" x1="148.48" y1="106.7" x2="154.11" y2="109.89"/>
      <line class="cls-7" x1="148.85" y1="103.73" x2="156.99" y2="105.97"/>
      <line class="cls-7" x1="149.34" y1="103.44" x2="156.6" y2="105.43"/>
      <line class="cls-7" x1="153.05" y1="112.16" x2="153.12" y2="112.21"/>
      <line class="cls-7" x1="144.21" y1="111.75" x2="147.81" y2="117.3"/>
      <line class="cls-7" x1="142.82" y1="112.6" x2="145.77" y2="118.57"/>
      <line class="cls-7" x1="141.36" y1="113.31" x2="143.59" y2="119.6"/>
      <line class="cls-7" x1="139.81" y1="113.8" x2="141.31" y2="120.34"/>
      <line class="cls-7" x1="138.23" y1="114.12" x2="138.97" y2="120.8"/>
      <line class="cls-7" x1="135.01" y1="114.12" x2="134.24" y2="120.8"/>
      <line class="cls-7" x1="151.54" y1="114.15" x2="151.63" y2="114.22"/>
      <line class="cls-7" x1="144.03" y1="111.45" x2="144.1" y2="111.55"/>
      <line class="cls-7" x1="142.68" y1="112.31" x2="142.73" y2="112.41"/>
      <line class="cls-7" x1="141.24" y1="112.97" x2="141.27" y2="113.09"/>
      <line class="cls-7" x1="139.74" y1="113.48" x2="139.76" y2="113.58"/>
      <line class="cls-7" x1="138.18" y1="113.78" x2="138.18" y2="113.88"/>
      <line class="cls-7" x1="136.61" y1="113.88" x2="136.61" y2="113.98"/>
      <line class="cls-7" x1="135.03" y1="113.78" x2="135.03" y2="113.88"/>
      <line class="cls-7" x1="149.82" y1="115.93" x2="149.89" y2="116.01"/>
      <line class="cls-7" x1="141.38" y1="120.56" x2="141.41" y2="120.68"/>
      <line class="cls-7" x1="143.68" y1="119.82" x2="143.7" y2="119.92"/>
      <line class="cls-7" x1="145.86" y1="118.8" x2="145.93" y2="118.89"/>
      <line class="cls-7" x1="147.92" y1="117.48" x2="148" y2="117.57"/>
      <line class="cls-7" x1="136.61" y1="114.22" x2="136.61" y2="120.95"/>
      <line class="cls-7" x1="134.22" y1="121.02" x2="134.2" y2="121.15"/>
      <line class="cls-7" x1="136.61" y1="121.17" x2="136.61" y2="121.29"/>
      <line class="cls-7" x1="139.02" y1="121.02" x2="139.02" y2="121.15"/>
      <line class="cls-7" x1="133.41" y1="113.8" x2="131.9" y2="120.34"/>
      <line class="cls-7" x1="131.88" y1="113.31" x2="129.63" y2="119.6"/>
      <line class="cls-7" x1="130.39" y1="112.6" x2="127.45" y2="118.57"/>
      <line class="cls-7" x1="129" y1="111.75" x2="125.41" y2="117.3"/>
      <line class="cls-7" x1="121.67" y1="114.15" x2="121.6" y2="114.22"/>
      <line class="cls-7" x1="133.48" y1="113.48" x2="133.45" y2="113.58"/>
      <line class="cls-7" x1="131.97" y1="112.97" x2="131.95" y2="113.09"/>
      <line class="cls-7" x1="130.53" y1="112.31" x2="130.48" y2="112.41"/>
      <line class="cls-7" x1="129.19" y1="111.45" x2="129.12" y2="111.55"/>
      <line class="cls-7" x1="120.19" y1="112.16" x2="120.1" y2="112.21"/>
      <line class="cls-7" x1="131.85" y1="120.56" x2="131.81" y2="120.68"/>
      <line class="cls-7" x1="123.39" y1="115.93" x2="123.32" y2="116.01"/>
      <line class="cls-7" x1="127.36" y1="118.8" x2="127.31" y2="118.89"/>
      <line class="cls-7" x1="129.53" y1="119.82" x2="129.51" y2="119.92"/>
      <line class="cls-7" x1="145.49" y1="110.69" x2="149.68" y2="115.76"/>
      <line class="cls-7" x1="127.72" y1="110.69" x2="123.53" y2="115.76"/>
      <line class="cls-7" x1="125.57" y1="108.15" x2="120.35" y2="112.02"/>
      <line class="cls-7" x1="147.65" y1="108.15" x2="152.86" y2="112.02"/>
      <line class="cls-7" x1="146.65" y1="109.49" x2="151.38" y2="114"/>
      <line class="cls-7" x1="126.59" y1="109.49" x2="121.84" y2="114"/>
      <path class="cls-7" d="M115.71,105.03c.51,2.45,1.44,4.8,2.69,6.93,1.27,2.13,2.85,4.04,4.71,5.61,1.86,1.59,3.94,2.84,6.17,3.7,2.25.86,4.61,1.32,6.98,1.35,2.39.05,4.75-.32,7.03-1.1,2.25-.78,4.38-1.96,6.29-3.48,1.9-1.52,3.55-3.38,4.87-5.46,1.32-2.08,2.3-4.41,2.92-6.84"/>
      <path class="cls-7" d="M156.15,94.66c-.56-2.28-1.46-4.41-2.67-6.37-1.2-1.94-2.71-3.68-4.45-5.12-1.74-1.42-3.69-2.55-5.75-3.33-2.09-.76-4.27-1.17-6.49-1.17-2.2-.03-4.38.32-6.49,1.05-2.09.73-4.06,1.81-5.82,3.21-1.76,1.42-3.29,3.12-4.55,5.03-1.23,1.94-2.18,4.07-2.76,6.33"/>
      <path class="cls-7" d="M156.25,94.62c-.56-2.26-1.44-4.41-2.67-6.38-1.2-1.96-2.71-3.7-4.48-5.15-1.74-1.45-3.71-2.57-5.8-3.36-2.08-.78-4.29-1.18-6.51-1.2-2.2-.02-4.41.35-6.51,1.08-2.11.71-4.08,1.82-5.87,3.24-1.76,1.39-3.32,3.11-4.57,5.05-1.25,1.94-2.18,4.07-2.78,6.33"/>
      <path class="cls-7" d="M156.04,94.69c-.53-2.26-1.44-4.38-2.64-6.32-1.21-1.94-2.69-3.68-4.41-5.1-1.74-1.42-3.69-2.55-5.75-3.31-2.06-.76-4.24-1.18-6.44-1.2-2.18-.03-4.36.34-6.45,1.08-2.08.71-4.06,1.79-5.79,3.19-1.76,1.4-3.29,3.09-4.52,5-1.23,1.91-2.16,4.04-2.76,6.28"/>
      <path class="cls-7" d="M155.83,94.74c-.53-2.23-1.41-4.34-2.62-6.25-1.18-1.91-2.66-3.63-4.36-5.03-1.72-1.42-3.64-2.52-5.68-3.28-2.04-.76-4.2-1.18-6.37-1.18-2.16-.03-4.31.32-6.38,1.03-2.06.74-4.01,1.79-5.75,3.19-1.72,1.37-3.25,3.04-4.45,4.93-1.23,1.91-2.16,4-2.73,6.2"/>
      <path class="cls-7" d="M157.52,94.91c-.53-2.45-1.46-4.78-2.72-6.94-1.25-2.13-2.85-4.02-4.71-5.61-1.86-1.59-3.94-2.84-6.17-3.7-2.25-.86-4.59-1.3-6.98-1.35-2.39-.05-4.75.34-7.03,1.13-2.25.78-4.38,1.96-6.28,3.48-1.9,1.52-3.55,3.36-4.87,5.44-1.32,2.11-2.29,4.41-2.89,6.84"/>
      <path class="cls-7" d="M149.66,96.43c-.37-1.52-.98-2.94-1.76-4.24-.81-1.3-1.81-2.45-2.97-3.41-1.13-.96-2.43-1.72-3.83-2.23-1.37-.52-2.83-.78-4.29-.81-1.48-.02-2.95.2-4.33.66-1.39.49-2.71,1.2-3.89,2.13-1.18.91-2.2,2.04-3.04,3.31-.84,1.28-1.49,2.67-1.88,4.17"/>
      <path class="cls-7" d="M157.52,94.91c-.53-2.45-1.46-4.78-2.72-6.94-1.25-2.13-2.85-4.02-4.71-5.61-1.86-1.59-3.94-2.84-6.17-3.7-2.25-.86-4.59-1.3-6.98-1.35-2.39-.05-4.75.34-7.03,1.13-2.25.78-4.38,1.96-6.28,3.48-1.9,1.52-3.55,3.36-4.87,5.44-1.32,2.11-2.29,4.41-2.89,6.84"/>
      <path class="cls-7" d="M115.71,105.03c.51,2.45,1.44,4.8,2.69,6.93,1.27,2.13,2.85,4.04,4.71,5.61,1.86,1.59,3.94,2.84,6.17,3.7,2.25.86,4.61,1.32,6.98,1.35,2.39.05,4.75-.32,7.03-1.1,2.25-.78,4.38-1.96,6.29-3.48,1.9-1.52,3.55-3.38,4.87-5.46,1.32-2.08,2.3-4.41,2.92-6.84"/>
      <path class="cls-7" d="M157.62,95.38c-.02-.1-.05-.15-.05-.25"/>
      <path class="cls-7" d="M156.39,95.23c-.05-.2-.09-.39-.14-.61"/>
      <path class="cls-7" d="M156.23,95.5c-.05-.27-.12-.54-.19-.81"/>
      <path class="cls-7" d="M156.06,95.79c-.07-.37-.14-.71-.23-1.05"/>
      <path class="cls-7" d="M156.78,105.6s.02-.08.02-.13"/>
      <line class="cls-7" x1="124.02" y1="96.43" x2="115.88" y2="94.2"/>
      <line class="cls-7" x1="117.15" y1="104.18" x2="115.62" y2="104.59"/>
      <line class="cls-7" x1="116.99" y1="104.44" x2="115.65" y2="104.81"/>
      <line class="cls-7" x1="116.83" y1="104.74" x2="115.71" y2="105.03"/>
      <line class="cls-7" x1="121.67" y1="85.79" x2="121.6" y2="85.72"/>
      <line class="cls-7" x1="151.54" y1="85.79" x2="151.63" y2="85.72"/>
      <line class="cls-7" x1="145.49" y1="89.25" x2="149.68" y2="84.2"/>
      <line class="cls-7" x1="144.21" y1="88.22" x2="147.81" y2="82.65"/>
      <line class="cls-7" x1="142.82" y1="87.33" x2="145.77" y2="81.35"/>
      <line class="cls-7" x1="141.36" y1="86.65" x2="143.59" y2="80.32"/>
      <line class="cls-7" x1="139.81" y1="86.13" x2="141.31" y2="79.59"/>
      <line class="cls-7" x1="138.23" y1="85.84" x2="138.97" y2="79.15"/>
      <line class="cls-7" x1="135.01" y1="85.84" x2="134.24" y2="79.15"/>
      <line class="cls-7" x1="133.41" y1="86.13" x2="131.9" y2="79.59"/>
      <line class="cls-7" x1="131.88" y1="86.65" x2="129.63" y2="80.32"/>
      <line class="cls-7" x1="130.39" y1="87.33" x2="127.45" y2="81.35"/>
      <line class="cls-7" x1="129" y1="88.22" x2="125.41" y2="82.65"/>
      <line class="cls-7" x1="127.72" y1="89.25" x2="123.53" y2="84.2"/>
      <line class="cls-7" x1="157.62" y1="95.38" x2="157.57" y2="95.13"/>
      <line class="cls-7" x1="143.68" y1="80.13" x2="143.7" y2="80"/>
      <line class="cls-7" x1="145.86" y1="81.16" x2="145.93" y2="81.06"/>
      <line class="cls-7" x1="147.92" y1="82.46" x2="148" y2="82.36"/>
      <line class="cls-7" x1="149.82" y1="84.02" x2="149.89" y2="83.93"/>
      <line class="cls-7" x1="134.22" y1="78.9" x2="134.2" y2="78.8"/>
      <line class="cls-7" x1="136.61" y1="78.76" x2="136.61" y2="78.63"/>
      <line class="cls-7" x1="139.02" y1="78.9" x2="139.02" y2="78.8"/>
      <line class="cls-7" x1="141.38" y1="79.37" x2="141.41" y2="79.25"/>
      <line class="cls-7" x1="136.61" y1="85.74" x2="136.61" y2="79"/>
      <line class="cls-7" x1="125.29" y1="82.46" x2="125.22" y2="82.36"/>
      <line class="cls-7" x1="127.36" y1="81.16" x2="127.31" y2="81.06"/>
      <line class="cls-7" x1="129.53" y1="80.13" x2="129.51" y2="80"/>
      <line class="cls-7" x1="131.85" y1="79.37" x2="131.81" y2="79.25"/>
      <line class="cls-7" x1="123.39" y1="84.02" x2="123.32" y2="83.93"/>
      <line class="cls-7" x1="156.39" y1="95.23" x2="157.52" y2="94.91"/>
      <line class="cls-7" x1="156.23" y1="95.5" x2="157.57" y2="95.13"/>
      <line class="cls-7" x1="156.06" y1="95.79" x2="157.62" y2="95.38"/>
      <line class="cls-7" x1="156.04" y1="94.69" x2="156.25" y2="94.62"/>
      <line class="cls-7" x1="154.3" y1="89.96" x2="154.39" y2="89.91"/>
      <line class="cls-7" x1="155.3" y1="92.26" x2="155.41" y2="92.21"/>
      <line class="cls-7" x1="153.05" y1="87.8" x2="153.12" y2="87.73"/>
      <line class="cls-7" x1="155.3" y1="107.68" x2="155.41" y2="107.73"/>
      <line class="cls-7" x1="154.3" y1="109.98" x2="154.39" y2="110.06"/>
      <line class="cls-7" x1="156.6" y1="105.43" x2="156.8" y2="105.47"/>
      <line class="cls-7" x1="146.39" y1="90.69" x2="146.49" y2="90.62"/>
      <line class="cls-7" x1="147.37" y1="91.99" x2="147.46" y2="91.92"/>
      <line class="cls-7" x1="148.2" y1="93.41" x2="148.29" y2="93.36"/>
      <line class="cls-7" x1="148.85" y1="94.93" x2="148.97" y2="94.88"/>
      <line class="cls-7" x1="149.34" y1="96.5" x2="149.45" y2="96.48"/>
      <path class="cls-7" d="M149.99,98.22c-.07-.59-.19-1.2-.32-1.79"/>
      <path class="cls-7" d="M149.78,98.27c-.07-.61-.19-1.2-.33-1.79"/>
      <path class="cls-7" d="M116.43,94.37s-.02.07-.02.1"/>
      <path class="cls-7" d="M149.45,96.48c-.37-1.48-.95-2.9-1.74-4.17-.79-1.28-1.76-2.4-2.9-3.36-1.14-.93-2.41-1.67-3.78-2.18-1.34-.51-2.78-.78-4.22-.81-1.46-.02-2.9.2-4.26.66-1.37.47-2.67,1.18-3.83,2.08-1.16.91-2.18,2.01-2.99,3.26-.84,1.25-1.46,2.65-1.86,4.09"/>
      <path class="cls-7" d="M149.34,96.5c-.35-1.47-.93-2.84-1.71-4.12-.79-1.28-1.76-2.4-2.88-3.34-1.14-.93-2.39-1.67-3.73-2.18-1.34-.49-2.78-.76-4.2-.78-1.43-.02-2.87.2-4.22.66-1.37.47-2.64,1.15-3.81,2.06-1.16.88-2.16,1.99-2.97,3.24-.84,1.22-1.44,2.6-1.86,4.07"/>
      <path class="cls-7" d="M149.25,96.53c-.37-1.45-.93-2.82-1.72-4.1-.77-1.25-1.74-2.35-2.85-3.28-1.11-.93-2.37-1.67-3.71-2.16-1.32-.52-2.73-.78-4.15-.81-1.43-.02-2.85.2-4.2.66-1.34.47-2.62,1.15-3.76,2.04-1.14.91-2.13,1.99-2.94,3.21-.81,1.22-1.44,2.6-1.83,4.04"/>
      <path class="cls-7" d="M149.22,103.54c.28-1.18.42-2.35.42-3.55"/>
      <path class="cls-7" d="M149.34,103.44c.28-1.13.42-2.3.42-3.45"/>
      <path class="cls-7" d="M123.46,101.7c.07.59.16,1.18.3,1.77"/>
      <path class="cls-7" d="M123.23,101.72c.07.61.19,1.2.32,1.81"/>
      <path class="cls-7" d="M117.15,104.18c.07.34.14.69.23,1.03"/>
      <path class="cls-7" d="M116.99,104.44c.05.27.12.54.18.83"/>
      <path class="cls-7" d="M116.83,104.74c.05.2.09.39.14.59"/>
      <path class="cls-7" d="M149.75,99.98c0-1.18-.14-2.35-.42-3.48"/>
      <path class="cls-7" d="M149.64,99.98c0-1.18-.11-2.33-.39-3.46"/>
      <line class="cls-7" x1="142.68" y1="87.65" x2="142.73" y2="87.53"/>
      <line class="cls-7" x1="144.03" y1="88.49" x2="144.1" y2="88.41"/>
      <line class="cls-7" x1="145.28" y1="89.52" x2="145.35" y2="89.44"/>
      <line class="cls-7" x1="135.03" y1="86.18" x2="135.03" y2="86.06"/>
      <line class="cls-7" x1="136.61" y1="86.08" x2="136.61" y2="85.96"/>
      <line class="cls-7" x1="138.18" y1="86.18" x2="138.18" y2="86.06"/>
      <line class="cls-7" x1="141.24" y1="86.96" x2="141.27" y2="86.84"/>
      <line class="cls-7" x1="139.74" y1="86.47" x2="139.76" y2="86.35"/>
      <line class="cls-7" x1="146.65" y1="90.45" x2="151.38" y2="85.96"/>
      <line class="cls-7" x1="149.99" y1="98.22" x2="149.78" y2="98.27"/>
      <line class="cls-7" x1="133.48" y1="86.47" x2="133.45" y2="86.35"/>
      <line class="cls-7" x1="125.85" y1="91.99" x2="125.76" y2="91.92"/>
      <line class="cls-7" x1="126.82" y1="90.69" x2="126.75" y2="90.62"/>
      <polyline class="cls-7" points="123.88 96.5 116.62 94.54 116.41 94.47"/>
      <line class="cls-7" x1="118.91" y1="89.96" x2="118.82" y2="89.91"/>
      <line class="cls-7" x1="117.92" y1="92.26" x2="117.8" y2="92.21"/>
      <line class="cls-7" x1="124.36" y1="94.93" x2="124.25" y2="94.88"/>
      <line class="cls-7" x1="125.01" y1="93.41" x2="124.92" y2="93.36"/>
      <line class="cls-7" x1="129.19" y1="88.49" x2="129.12" y2="88.41"/>
      <line class="cls-7" x1="130.53" y1="87.65" x2="130.48" y2="87.53"/>
      <line class="cls-7" x1="131.97" y1="86.96" x2="131.95" y2="86.84"/>
      <line class="cls-7" x1="120.19" y1="87.8" x2="120.1" y2="87.73"/>
      <line class="cls-7" x1="127.94" y1="89.52" x2="127.87" y2="89.44"/>
      <line class="cls-7" x1="126.59" y1="90.45" x2="121.84" y2="85.96"/>
      <line class="cls-7" x1="125.57" y1="91.79" x2="120.35" y2="87.92"/>
      <line class="cls-7" x1="124.73" y1="93.24" x2="119.1" y2="90.06"/>
      <line class="cls-7" x1="124.06" y1="94.78" x2="118.13" y2="92.33"/>
      <line class="cls-7" x1="148.85" y1="105.03" x2="148.97" y2="105.08"/>
      <line class="cls-7" x1="148.2" y1="106.55" x2="148.29" y2="106.6"/>
      <line class="cls-7" x1="147.37" y1="107.95" x2="147.46" y2="108.02"/>
      <line class="cls-7" x1="146.39" y1="109.27" x2="146.49" y2="109.35"/>
      <line class="cls-7" x1="145.28" y1="110.42" x2="145.35" y2="110.52"/>
      <line class="cls-7" x1="124.73" y1="106.7" x2="119.1" y2="109.89"/>
      <line class="cls-7" x1="124.06" y1="105.16" x2="118.13" y2="107.61"/>
      <line class="cls-7" x1="123.55" y1="103.54" x2="117.38" y2="105.21"/>
      <line class="cls-7" x1="127.94" y1="110.42" x2="127.87" y2="110.52"/>
      <line class="cls-7" x1="126.82" y1="109.27" x2="126.75" y2="109.35"/>
      <line class="cls-7" x1="125.85" y1="107.95" x2="125.76" y2="108.02"/>
      <line class="cls-7" x1="125.01" y1="106.55" x2="124.92" y2="106.6"/>
      <line class="cls-7" x1="124.36" y1="105.03" x2="124.25" y2="105.08"/>
      <line class="cls-7" x1="123.88" y1="103.44" x2="123.76" y2="103.47"/>
      <line class="cls-7" x1="117.92" y1="107.68" x2="117.8" y2="107.73"/>
      <line class="cls-7" x1="118.91" y1="109.98" x2="118.82" y2="110.06"/>
      <line class="cls-7" x1="117.17" y1="105.28" x2="116.97" y2="105.33"/>
      <line class="cls-7" x1="123.23" y1="101.72" x2="123.46" y2="101.7"/>
      <line class="cls-7" x1="149.66" y1="96.43" x2="155.83" y2="94.74"/>
      <path class="cls-7" d="M123.55,103.54c.37,1.5.98,2.92,1.76,4.22.81,1.3,1.81,2.45,2.97,3.4,1.13.98,2.43,1.72,3.83,2.23,1.37.54,2.83.81,4.29.83,1.48.02,2.94-.22,4.33-.69s2.71-1.2,3.9-2.11c1.18-.93,2.2-2.06,3.04-3.33.84-1.25,1.48-2.67,1.88-4.17"/>
      <path class="cls-7" d="M117.38,105.21c.53,2.23,1.41,4.34,2.62,6.25,1.18,1.94,2.67,3.62,4.36,5.04,1.72,1.42,3.64,2.52,5.68,3.28,2.04.76,4.2,1.15,6.37,1.18,2.16.02,4.34-.35,6.4-1.06,2.04-.71,3.99-1.79,5.73-3.16,1.74-1.37,3.25-3.06,4.45-4.94,1.23-1.89,2.16-3.99,2.74-6.2"/>
      <path class="cls-7" d="M117.17,105.28c.56,2.23,1.44,4.36,2.64,6.32,1.21,1.94,2.69,3.65,4.43,5.07,1.72,1.44,3.67,2.55,5.73,3.33,2.06.76,4.24,1.15,6.45,1.17,2.18.03,4.38-.34,6.45-1.05,2.09-.73,4.06-1.81,5.8-3.21,1.76-1.39,3.29-3.08,4.52-4.99,1.23-1.91,2.18-4.01,2.76-6.24"/>
      <path class="cls-7" d="M116.96,105.33c.56,2.28,1.47,4.44,2.67,6.39,1.2,1.96,2.73,3.69,4.48,5.14,1.74,1.44,3.71,2.57,5.8,3.33,2.08.78,4.29,1.2,6.51,1.22,2.21,0,4.43-.34,6.52-1.08,2.11-.74,4.1-1.83,5.87-3.23,1.76-1.42,3.32-3.11,4.57-5.04,1.25-1.93,2.18-4.09,2.78-6.34"/>
      <path class="cls-7" d="M117.06,105.3c.55,2.26,1.46,4.39,2.66,6.35,1.21,1.96,2.71,3.67,4.45,5.11,1.74,1.44,3.69,2.57,5.75,3.33,2.09.76,4.29,1.17,6.49,1.2,2.21.03,4.41-.34,6.49-1.08,2.08-.71,4.06-1.81,5.82-3.21,1.76-1.4,3.29-3.09,4.54-5.02,1.25-1.93,2.18-4.07,2.76-6.29"/>
      <path class="cls-7" d="M123.97,103.42c.37,1.45.95,2.84,1.72,4.09.76,1.25,1.74,2.38,2.85,3.31,1.11.91,2.37,1.64,3.71,2.16,1.35.49,2.74.76,4.15.78,1.43.03,2.85-.2,4.2-.66,1.34-.46,2.62-1.15,3.76-2.03,1.16-.88,2.16-1.98,2.97-3.21.81-1.22,1.41-2.6,1.81-4.02"/>
      <path class="cls-7" d="M123.88,103.44c.35,1.47.93,2.87,1.71,4.14.79,1.25,1.77,2.38,2.88,3.31,1.14.93,2.39,1.66,3.74,2.18,1.37.51,2.78.78,4.2.81,1.43.02,2.87-.22,4.22-.66,1.37-.46,2.67-1.18,3.8-2.06,1.16-.91,2.16-2.01,2.97-3.23.84-1.25,1.44-2.62,1.85-4.07"/>
      <path class="cls-7" d="M123.76,103.47c.37,1.5.95,2.89,1.74,4.17.79,1.27,1.76,2.4,2.9,3.35,1.14.93,2.41,1.69,3.78,2.21,1.37.49,2.78.76,4.22.78,1.46.03,2.9-.2,4.26-.66,1.37-.47,2.67-1.18,3.83-2.08,1.16-.91,2.18-2.01,2.99-3.26.84-1.25,1.46-2.62,1.86-4.09"/>
      <line class="cls-7" x1="149.15" y1="94.78" x2="155.11" y2="92.36"/>
      <line class="cls-7" x1="148.48" y1="93.24" x2="154.11" y2="90.06"/>
      <line class="cls-7" x1="147.65" y1="91.79" x2="152.86" y2="87.92"/>
      <line class="cls-7" x1="149.22" y1="103.54" x2="157.36" y2="105.74"/>
      <line class="cls-7" x1="149.15" y1="105.16" x2="155.11" y2="107.61"/>
      <line class="cls-7" x1="148.48" y1="106.7" x2="154.11" y2="109.89"/>
      <line class="cls-7" x1="148.85" y1="103.73" x2="156.99" y2="105.97"/>
      <line class="cls-7" x1="149.34" y1="103.44" x2="156.6" y2="105.43"/>
      <line class="cls-7" x1="153.05" y1="112.16" x2="153.12" y2="112.21"/>
      <line class="cls-7" x1="144.21" y1="111.75" x2="147.81" y2="117.3"/>
      <line class="cls-7" x1="142.82" y1="112.6" x2="145.77" y2="118.57"/>
      <line class="cls-7" x1="141.36" y1="113.31" x2="143.59" y2="119.6"/>
      <line class="cls-7" x1="139.81" y1="113.8" x2="141.31" y2="120.34"/>
      <line class="cls-7" x1="138.23" y1="114.12" x2="138.97" y2="120.8"/>
      <line class="cls-7" x1="135.01" y1="114.12" x2="134.24" y2="120.8"/>
      <line class="cls-7" x1="151.54" y1="114.15" x2="151.63" y2="114.22"/>
      <line class="cls-7" x1="144.03" y1="111.45" x2="144.1" y2="111.55"/>
      <line class="cls-7" x1="142.68" y1="112.31" x2="142.73" y2="112.41"/>
      <line class="cls-7" x1="141.24" y1="112.97" x2="141.27" y2="113.09"/>
      <line class="cls-7" x1="139.74" y1="113.48" x2="139.76" y2="113.58"/>
      <line class="cls-7" x1="138.18" y1="113.78" x2="138.18" y2="113.88"/>
      <line class="cls-7" x1="136.61" y1="113.88" x2="136.61" y2="113.98"/>
      <line class="cls-7" x1="135.03" y1="113.78" x2="135.03" y2="113.88"/>
      <line class="cls-7" x1="149.82" y1="115.93" x2="149.89" y2="116.01"/>
      <line class="cls-7" x1="141.38" y1="120.56" x2="141.41" y2="120.68"/>
      <line class="cls-7" x1="143.68" y1="119.82" x2="143.7" y2="119.92"/>
      <line class="cls-7" x1="145.86" y1="118.8" x2="145.93" y2="118.89"/>
      <line class="cls-7" x1="147.92" y1="117.48" x2="148" y2="117.57"/>
      <line class="cls-7" x1="136.61" y1="114.22" x2="136.61" y2="120.95"/>
      <line class="cls-7" x1="134.22" y1="121.02" x2="134.2" y2="121.15"/>
      <line class="cls-7" x1="136.61" y1="121.17" x2="136.61" y2="121.29"/>
      <line class="cls-7" x1="139.02" y1="121.02" x2="139.02" y2="121.15"/>
      <line class="cls-7" x1="133.41" y1="113.8" x2="131.9" y2="120.34"/>
      <line class="cls-7" x1="131.88" y1="113.31" x2="129.63" y2="119.6"/>
      <line class="cls-7" x1="130.39" y1="112.6" x2="127.45" y2="118.57"/>
      <line class="cls-7" x1="129" y1="111.75" x2="125.41" y2="117.3"/>
      <line class="cls-7" x1="121.67" y1="114.15" x2="121.6" y2="114.22"/>
      <line class="cls-7" x1="133.48" y1="113.48" x2="133.45" y2="113.58"/>
      <line class="cls-7" x1="131.97" y1="112.97" x2="131.95" y2="113.09"/>
      <line class="cls-7" x1="130.53" y1="112.31" x2="130.48" y2="112.41"/>
      <line class="cls-7" x1="129.19" y1="111.45" x2="129.12" y2="111.55"/>
      <line class="cls-7" x1="120.19" y1="112.16" x2="120.1" y2="112.21"/>
      <line class="cls-7" x1="131.85" y1="120.56" x2="131.81" y2="120.68"/>
      <line class="cls-7" x1="123.39" y1="115.93" x2="123.32" y2="116.01"/>
      <line class="cls-7" x1="125.29" y1="117.48" x2="125.22" y2="117.57"/>
      <line class="cls-7" x1="127.36" y1="118.8" x2="127.31" y2="118.89"/>
      <line class="cls-7" x1="129.53" y1="119.82" x2="129.51" y2="119.92"/>
      <line class="cls-7" x1="145.49" y1="110.69" x2="149.68" y2="115.76"/>
      <line class="cls-7" x1="127.72" y1="110.69" x2="123.53" y2="115.76"/>
      <line class="cls-7" x1="125.57" y1="108.15" x2="120.35" y2="112.02"/>
      <path class="cls-7" d="M115.62,104.59c0,.07.02.15.02.22"/>
      <path class="cls-7" d="M115.71,105.03c.51,2.45,1.44,4.8,2.69,6.93,1.27,2.13,2.85,4.04,4.71,5.61,1.86,1.59,3.94,2.84,6.17,3.7,2.25.86,4.61,1.32,6.98,1.35,2.39.05,4.75-.32,7.03-1.1,2.25-.78,4.38-1.96,6.29-3.48,1.9-1.52,3.55-3.38,4.87-5.46,1.32-2.08,2.3-4.41,2.92-6.84"/>
      <path class="cls-7" d="M156.15,94.66c-.56-2.28-1.46-4.41-2.67-6.37-1.2-1.94-2.71-3.68-4.45-5.12-1.74-1.42-3.69-2.55-5.75-3.33-2.09-.76-4.27-1.17-6.49-1.17-2.2-.03-4.38.32-6.49,1.05-2.09.73-4.06,1.81-5.82,3.21-1.76,1.42-3.29,3.12-4.55,5.03-1.23,1.94-2.18,4.07-2.76,6.33"/>
      <path class="cls-7" d="M156.25,94.62c-.56-2.26-1.44-4.41-2.67-6.38-1.2-1.96-2.71-3.7-4.48-5.15-1.74-1.45-3.71-2.57-5.8-3.36-2.08-.78-4.29-1.18-6.51-1.2-2.2-.02-4.41.35-6.51,1.08-2.11.71-4.08,1.82-5.87,3.24-1.76,1.39-3.32,3.11-4.57,5.05-1.25,1.94-2.18,4.07-2.78,6.33"/>
      <path class="cls-7" d="M156.04,94.69c-.53-2.26-1.44-4.38-2.64-6.32-1.21-1.94-2.69-3.68-4.41-5.1-1.74-1.42-3.69-2.55-5.75-3.31-2.06-.76-4.24-1.18-6.44-1.2-2.18-.03-4.36.34-6.45,1.08-2.08.71-4.06,1.79-5.79,3.19-1.76,1.4-3.29,3.09-4.52,5-1.23,1.91-2.16,4.04-2.76,6.28"/>
      <path class="cls-7" d="M155.83,94.74c-.53-2.23-1.41-4.34-2.62-6.25-1.18-1.91-2.66-3.63-4.36-5.03-1.72-1.42-3.64-2.52-5.68-3.28-2.04-.76-4.2-1.18-6.37-1.18-2.16-.03-4.31.32-6.38,1.03-2.06.74-4.01,1.79-5.75,3.19-1.72,1.37-3.25,3.04-4.45,4.93-1.23,1.91-2.16,4-2.73,6.2"/>
      <path class="cls-7" d="M157.52,94.91c-.53-2.45-1.46-4.78-2.72-6.94-1.25-2.13-2.85-4.02-4.71-5.61-1.86-1.59-3.94-2.84-6.17-3.7-2.25-.86-4.59-1.3-6.98-1.35-2.39-.05-4.75.34-7.03,1.13-2.25.78-4.38,1.96-6.28,3.48-1.9,1.52-3.55,3.36-4.87,5.44-1.32,2.11-2.29,4.41-2.89,6.84"/>
      <path class="cls-7" d="M149.66,96.43c-.37-1.52-.98-2.94-1.76-4.24-.81-1.3-1.81-2.45-2.97-3.41-1.13-.96-2.43-1.72-3.83-2.23-1.37-.52-2.83-.78-4.29-.81-1.48-.02-2.95.2-4.33.66-1.39.49-2.71,1.2-3.89,2.13-1.18.91-2.2,2.04-3.04,3.31-.84,1.28-1.49,2.67-1.88,4.17"/>
      <path class="cls-7" d="M157.62,95.38c-.02-.1-.05-.15-.05-.25"/>
      <line class="cls-7" x1="147.65" y1="108.15" x2="152.86" y2="112.02"/>
      <line class="cls-7" x1="146.65" y1="109.49" x2="151.38" y2="114"/>
      <line class="cls-7" x1="126.59" y1="109.49" x2="121.84" y2="114"/>
      <line class="cls-7" x1="124.02" y1="96.43" x2="115.88" y2="94.2"/>
      <line class="cls-7" x1="117.15" y1="104.18" x2="115.62" y2="104.59"/>
      <line class="cls-7" x1="116.99" y1="104.44" x2="115.65" y2="104.81"/>
      <line class="cls-7" x1="121.67" y1="85.79" x2="121.6" y2="85.72"/>
      <line class="cls-7" x1="151.54" y1="85.79" x2="151.63" y2="85.72"/>
      <line class="cls-7" x1="145.49" y1="89.25" x2="149.68" y2="84.2"/>
      <line class="cls-7" x1="144.21" y1="88.22" x2="147.81" y2="82.65"/>
      <line class="cls-7" x1="142.82" y1="87.33" x2="145.77" y2="81.35"/>
      <line class="cls-7" x1="141.36" y1="86.65" x2="143.59" y2="80.32"/>
      <line class="cls-7" x1="139.81" y1="86.13" x2="141.31" y2="79.59"/>
      <line class="cls-7" x1="138.23" y1="85.84" x2="138.97" y2="79.15"/>
      <line class="cls-7" x1="135.01" y1="85.84" x2="134.24" y2="79.15"/>
      <line class="cls-7" x1="133.41" y1="86.13" x2="131.9" y2="79.59"/>
      <line class="cls-7" x1="131.88" y1="86.65" x2="129.63" y2="80.32"/>
      <line class="cls-7" x1="130.39" y1="87.33" x2="127.45" y2="81.35"/>
      <line class="cls-7" x1="129" y1="88.22" x2="125.41" y2="82.65"/>
      <line class="cls-7" x1="127.72" y1="89.25" x2="123.53" y2="84.2"/>
      <polyline class="cls-8" points="130.89 96.07 134.13 96.07 134.13 98.68 136.49 98.68 136.49 101.48 139.21 101.48 139.21 104.09 142.81 104.09"/>
      <polygon class="cls-3" points="132.28 97.29 131.1 96.07 132.28 94.86 131.27 94.86 130.09 96.07 131.27 97.29 132.28 97.29"/>
      <polygon class="cls-3" points="141.42 105.31 142.6 104.1 141.42 102.88 142.43 102.88 143.61 104.1 142.43 105.31 141.42 105.31"/>
      <polyline class="cls-8" points="433.2 155.04 436.44 155.04 436.44 157.65 438.79 157.65 438.79 160.45 441.52 160.45 441.52 163.06 445.12 163.06"/>
      <polygon class="cls-3" points="434.59 156.25 433.4 155.04 434.59 153.82 433.58 153.82 432.4 155.04 433.58 156.25 434.59 156.25"/>
      <polygon class="cls-3" points="443.73 164.28 444.91 163.06 443.73 161.84 444.73 161.84 445.92 163.06 444.73 164.28 443.73 164.28"/>
      <text class="cls-2" transform="translate(338.31 56.24) scale(.97 1)"><tspan x="0" y="0">BIG</tspan></text>
      <text class="cls-5" transform="translate(396.79 67.33) scale(.97 1)"><tspan x="0" y="0">TECH LAB</tspan></text>
      <text class="cls-5" transform="translate(389.15 115.7) scale(.97 1)"><tspan x="0" y="0">STUDIO</tspan></text>
      <text class="cls-2" transform="translate(269.76 53.96) scale(.97 1)"><tspan x="0" y="0">ENERGY</tspan></text>
      <text class="cls-2" transform="translate(271.93 62.54) scale(.97 1)"><tspan x="0" y="0">HOUSE</tspan></text>
      <line class="cls-7" x1="359.89" y1="61.1" x2="333.33" y2="61.1"/>
      <line class="cls-7" x1="246.62" y1="69.87" x2="243.01" y2="78.37"/>
      <polyline class="cls-7" points="236.38 95.71 236.34 85.11 228 79.68 223.58 82.55 220.21 95"/>
      <text class="cls-2" transform="translate(225.97 92.72) scale(.97 1)"><tspan x="0" y="0">CLEAN</tspan></text>
      <text class="cls-2" transform="translate(231.92 101.69) scale(.97 1)"><tspan x="0" y="0">AIR </tspan></text>
      <text class="cls-2" transform="translate(229.52 110.65) scale(.97 1)"><tspan x="0" y="0">TREK</tspan></text>
      <text class="cls-2" transform="translate(276.18 98.44) scale(.97 1)"><tspan x="0" y="0">ALL ABOARD</tspan></text>
      <line class="cls-7" x1="160.17" y1="143.48" x2="160.17" y2="151.97"/>
      <line class="cls-7" x1="181.31" y1="147.53" x2="181.31" y2="160.67"/>
      <line class="cls-7" x1="160.17" y1="165.77" x2="160.17" y2="172.57"/>
      <path class="cls-11" d="M352.33,173.71c0,.8.63,1.45,1.41,1.45h8.01c.78,0,1.41-.65,1.41-1.45v-17.43c0-.8-.63-1.45-1.41-1.45h-8.01c-.78,0-1.41.65-1.41,1.45v17.43Z"/>
      <path class="cls-9" d="M352.33,173.71c0,.8.63,1.45,1.41,1.45h8.01c.78,0,1.41-.65,1.41-1.45v-17.43c0-.8-.63-1.45-1.41-1.45h-8.01c-.78,0-1.41.65-1.41,1.45v17.43Z"/>
      <path class="cls-3" d="M356.3,158c0,.81.64,1.47,1.42,1.47s1.43-.65,1.43-1.47-.64-1.46-1.43-1.46-1.42.65-1.42,1.46"/>
      <path class="cls-3" d="M353.97,165.3l1.65-5.03c.08-.25.32-.35.6-.32h0s2.94,0,2.94,0c.02,0,.02,0,.06,0,.27-.02.54.06.62.32l1.65,5.03c.09.27-.05.55-.31.64-.26.09-.54-.05-.62-.31l-1.4-4.3v.52l1.56,6.13h-1.53v4.86c0,.37-.29.67-.65.67s-.65-.3-.65-.67v-4.86h-.34v4.86c0,.37-.29.67-.65.67s-.66-.3-.66-.67v-4.86h-1.57l1.56-6.17v-.2l-1.32,4.02c-.09.26-.37.4-.62.31-.26-.09-.4-.38-.31-.64"/>
      <path class="cls-11" d="M371.26,173.71c0,.8.63,1.45,1.41,1.45h8.01c.78,0,1.41-.65,1.41-1.45v-17.43c0-.8-.63-1.45-1.41-1.45h-8.01c-.78,0-1.41.65-1.41,1.45v17.43Z"/>
      <path class="cls-9" d="M371.26,173.71c0,.8.63,1.45,1.41,1.45h8.01c.78,0,1.41-.65,1.41-1.45v-17.43c0-.8-.63-1.45-1.41-1.45h-8.01c-.78,0-1.41.65-1.41,1.45v17.43Z"/>
      <path class="cls-3" d="M375,158c0,.81.64,1.47,1.42,1.47s1.43-.65,1.43-1.47-.64-1.46-1.43-1.46-1.42.65-1.42,1.46"/>
      <path class="cls-3" d="M373.92,159.96c.27-.15.54-.17.87-.17h.03s3.3,0,3.3,0c0,0,.46.02.86.16.35.11.47.34.47.61v5.54c0,.28-.22.5-.49.5s-.49-.23-.49-.5v-4.26h-.35v4.48h-.02v6.5c0,.37-.29.67-.65.67s-.65-.3-.65-.67v-6.5h-.65v6.36c0,.37-.29.67-.65.67s-.65-.3-.65-.67v-6.36h-.02v-4.48h-.31v4.26c0,.28-.22.5-.49.5s-.49-.23-.49-.5v-5.54c0-.25.11-.43.39-.6"/>
      <line class="cls-7" x1="367.29" y1="155.3" x2="367.29" y2="175.01"/>
      <path class="cls-3" d="M375.76,66.28c0,.71-.55,1.28-1.24,1.28h-15.24c-.68,0-1.24-.57-1.24-1.28v-15.32c0-.7.56-1.27,1.24-1.27h15.24c.68,0,1.24.57,1.24,1.27v15.32Z"/>
      <path class="cls-11" d="M359.52,62.34s-.08-.02-.11-.05c-.09-.07-.1-.21-.1-.32,0-.36,0-.72,0-1.08-.56-.11-1.01-.66-1.01-1.24s.44-1.14,1-1.24v-1.04c0-.11,0-.24.09-.31.06-.05.15-.06.23-.06.35-.01.69-.02,1.03-.04.13-1.52,1.02-2.92,2.23-3.8,1.21-.88,2.72-1.27,4.21-1.25,1.45.02,2.92.43,4.1,1.31,1.17.88,2.02,2.26,2.15,3.75.28.01.56.02.84.03.09,0,.18.01.25.07.08.07.08.2.08.31,0,.23,0,.46-.01.69,0,.09,0,.19.04.27.06.12.2.16.31.22.38.2.65.62.65,1.06,0,.44-.24.87-.62,1.08-.12.07-.37.14-.37.14,0,0-.01.3-.01.39,0,.25,0,.51-.01.76,0,.15-.03.27-.18.32-.19.07-.63.04-.63.04,0,0-.51.02-.77.03-.23,0-.47.01-.67-.1-.2-.12-.33-.39-.21-.59-.79,2.1-2.89,3.61-5.09,3.64-2.19.03-4.33-1.42-5.17-3.5.09.16-.02.37-.17.46-.16.09-.34.09-.52.08-.48,0-.97-.02-1.45-.03-.04,0-.08,0-.12,0M363.75,53.3c-.35.2-.68.43-.98.71-.78.71-1.34,1.68-1.5,2.74-.01.07-.02.16.04.21.04.04.1.03.16.04.22.03.38.28.32.5.56-1.38,1.68-2.51,3.02-3.06,1.35-.56,2.91-.54,4.24.05.75.33,1.41.84,1.95,1.46.27.32.51.66.71,1.03.04.07.23.53.27.51.04-.01.04-.19.06-.23.03-.09.09-.17.17-.22.06-.04.13-.07.2-.07.12,0,.27.02.31-.09.02-.03.01-.08,0-.11-.11-.93-.56-1.8-1.2-2.46-.64-.67-1.45-1.14-2.31-1.44-1.17-.4-2.45-.48-3.67-.23-.63.13-1.24.35-1.8.67M367.59,54.66c-.25-.04-.51-.06-.77-.05-1.72.02-3.39,1.04-4.23,2.57-.84,1.54-.83,3.53.04,5.06.39-.42.78-.84,1.17-1.27-.68-.53-1.03-1.48-.86-2.34.17-.86.84-1.6,1.67-1.82.83-.22,1.76.08,2.32.74.56-.66,1.49-.96,2.32-.74.82.22,1.5.95,1.67,1.81.17.86-.16,1.8-.84,2.34.18.2.36.4.54.6.1.11.39.54.53.54.15,0,.26-.41.3-.53.08-.21.14-.42.2-.63.21-.86.2-1.77-.03-2.63-.12-.43-.28-.86-.51-1.24-.75-1.29-2.09-2.18-3.53-2.41M359.91,57.56s-.02.02-.03.03c0,.04,0,.08,0,.12v3.9s0,.09,0,.14c.02.01.03.04.05.04.4,0,.8,0,1.19,0,.02,0,.04-.03.06-.04,0-.04,0-.08,0-.12v-3.91s0-.09,0-.14c-.02-.01-.04-.04-.05-.04-.41,0-.81,0-1.22,0M372.65,57.56s-.02.03-.03.04c0,1.36,0,2.72,0,4.07,0,.04.02.07.02.11.41,0,.83,0,1.24.01.01,0,.02-.02.04-.04,0-.04,0-.09,0-.14v-3.89s0-.09,0-.14c-.02-.01-.05-.04-.07-.04-.4,0-.8,0-1.2,0M374.55,59.05s-.02-.01-.04-.02c0,0,0,.02,0,.03v1.15c.02.08.05.05.08,0,.26-.13.36-.36.33-.65-.02-.25-.14-.43-.38-.52M358.88,59.54c-.03.37.14.65.42.69v-1.16s0-.03,0-.04c-.02,0-.04.02-.06.03-.18.09-.3.24-.35.44,0,.02,0,.03-.01.05M370.39,58.91s-.01-.06-.02-.09c-.05-.34-.17-.65-.4-.91-.42-.46-.96-.62-1.56-.55-.37.04-.7.19-.97.47-.05.05-.08.11-.12.17.79.85,1.56,1.69,2.34,2.53.49-.43.78-.95.71-1.63M367.21,64.74c.56-.04,1.12-.18,1.63-.41.79-.35,1.38-.89,1.95-1.54.03-.03.06-.07.05-.11,0-.04-.03-.07-.05-.09-.37-.4-.74-.8-1.12-1.2-.82.84-1.64,1.68-2.46,2.52-.08.08-.16.16-.27.16-.1,0-.17-.08-.24-.15-.83-.85-1.65-1.7-2.48-2.54-.42.46-.84.91-1.27,1.37.84,1.15,2.19,1.9,3.58,2,.22.02.45.02.67,0M364.63,60.93c.78.8,1.55,1.6,2.31,2.39.77-.79,1.54-1.58,2.32-2.38-.76-.83-1.54-1.66-2.3-2.49-.03.02-.04.02-.05.03-.76.82-1.52,1.65-2.28,2.46M366.55,58c-.49-.61-1.11-.72-1.82-.6-.58.1-1.15.69-1.26,1.41-.11.71.17,1.29.74,1.72.78-.84,1.55-1.68,2.34-2.53"/>
    </g>
  </g>
</svg>